<svg xmlns="http://www.w3.org/2000/svg" xmlns:xlink="http://www.w3.org/1999/xlink" preserveAspectRatio="xMidYMid" width="42" height="42" viewBox="0 0 42 42">
  <defs>
    <style>
      .cls-1 {
        fill: #fff;
      }

      .cls-2 {
        fill: #613a18;
        fill-rule: evenodd;
      }
    </style>
  </defs>
  <g>
    <circle cx="21" cy="21" r="21" class="cls-1"/>
    <path d="M34.875,28.042 C34.875,27.412 34.343,26.902 33.688,26.902 L33.079,26.902 C33.071,26.495 32.868,26.133 32.557,25.898 C32.782,25.890 32.962,25.713 32.962,25.494 C32.962,25.327 32.857,25.184 32.706,25.122 C33.671,24.663 33.699,23.440 33.248,22.111 L32.363,19.342 L32.541,19.342 C32.774,19.342 32.962,19.161 32.962,18.938 C32.962,18.746 32.822,18.585 32.635,18.544 C32.958,18.289 33.164,17.902 33.164,17.470 C33.164,16.964 32.881,16.522 32.460,16.278 L33.688,16.278 C34.344,16.278 34.875,15.768 34.875,15.139 C34.875,14.510 34.343,14.000 33.688,14.000 L9.312,14.000 C8.656,14.000 8.125,14.510 8.125,15.139 C8.125,15.768 8.656,16.278 9.312,16.278 L10.540,16.278 C10.119,16.522 9.836,16.964 9.836,17.470 C9.836,17.902 10.042,18.289 10.365,18.544 C10.177,18.585 10.038,18.746 10.038,18.938 C10.038,19.161 10.226,19.342 10.459,19.342 L10.637,19.342 L9.752,22.111 C9.301,23.440 9.329,24.663 10.294,25.123 C10.143,25.184 10.038,25.327 10.038,25.494 C10.038,25.713 10.218,25.890 10.443,25.898 C10.132,26.133 9.929,26.495 9.921,26.902 L9.312,26.902 C8.656,26.902 8.125,27.412 8.125,28.042 L8.000,29.000 L35.000,29.000 L34.875,28.042 ZM15.382,25.122 C15.232,25.184 15.126,25.327 15.126,25.494 C15.126,25.713 15.306,25.890 15.532,25.898 C15.220,26.133 15.018,26.495 15.009,26.902 L12.653,26.902 C12.645,26.494 12.442,26.133 12.131,25.898 C12.356,25.890 12.536,25.713 12.536,25.494 C12.536,25.327 12.431,25.184 12.280,25.122 C13.245,24.663 13.273,23.440 12.822,22.111 L11.937,19.341 L12.115,19.341 C12.348,19.341 12.536,19.161 12.536,18.938 C12.536,18.745 12.396,18.585 12.209,18.544 C12.532,18.289 12.738,17.902 12.738,17.470 C12.738,16.964 12.455,16.522 12.034,16.278 L15.629,16.278 C15.207,16.522 14.925,16.964 14.925,17.470 C14.925,17.902 15.130,18.289 15.453,18.544 C15.266,18.585 15.126,18.745 15.126,18.938 C15.126,19.161 15.314,19.341 15.547,19.341 L15.725,19.341 L14.840,22.111 C14.389,23.440 14.417,24.663 15.382,25.122 ZM20.470,25.122 C20.320,25.184 20.214,25.327 20.214,25.494 C20.214,25.713 20.395,25.890 20.620,25.898 C20.308,26.133 20.106,26.495 20.098,26.902 L17.741,26.902 C17.733,26.494 17.530,26.133 17.219,25.898 C17.444,25.890 17.625,25.713 17.625,25.494 C17.625,25.327 17.519,25.184 17.368,25.122 C18.334,24.663 18.361,23.440 17.910,22.111 L17.025,19.341 L17.204,19.341 C17.436,19.341 17.625,19.161 17.625,18.938 C17.625,18.745 17.485,18.585 17.298,18.544 C17.620,18.289 17.826,17.902 17.826,17.470 C17.826,16.964 17.543,16.522 17.122,16.278 L20.717,16.278 C20.296,16.522 20.013,16.964 20.013,17.470 C20.013,17.902 20.219,18.289 20.541,18.544 C20.354,18.585 20.214,18.745 20.214,18.938 C20.214,19.161 20.403,19.341 20.635,19.341 L20.814,19.341 L19.929,22.111 C19.478,23.440 19.505,24.663 20.470,25.122 ZM25.559,25.122 C25.408,25.184 25.303,25.327 25.303,25.494 C25.303,25.713 25.483,25.890 25.708,25.898 C25.397,26.133 25.194,26.495 25.186,26.902 L22.830,26.902 C22.821,26.494 22.619,26.133 22.307,25.898 C22.533,25.890 22.713,25.713 22.713,25.494 C22.713,25.327 22.607,25.184 22.457,25.122 C23.422,24.663 23.450,23.440 22.998,22.111 L22.113,19.341 L22.292,19.341 C22.524,19.341 22.713,19.161 22.713,18.938 C22.713,18.745 22.573,18.585 22.386,18.544 C22.708,18.289 22.914,17.902 22.914,17.470 C22.914,16.964 22.632,16.522 22.210,16.278 L25.805,16.278 C25.384,16.522 25.101,16.964 25.101,17.470 C25.101,17.902 25.307,18.289 25.630,18.544 C25.442,18.585 25.303,18.745 25.303,18.938 C25.303,19.161 25.491,19.341 25.724,19.341 L25.902,19.341 L25.017,22.111 C24.566,23.440 24.594,24.663 25.559,25.122 ZM30.720,25.122 C30.569,25.184 30.464,25.327 30.464,25.494 C30.464,25.713 30.644,25.890 30.869,25.898 C30.558,26.133 30.355,26.495 30.347,26.902 L27.918,26.902 C27.910,26.494 27.707,26.133 27.396,25.898 C27.621,25.890 27.801,25.713 27.801,25.494 C27.801,25.327 27.696,25.184 27.545,25.122 C28.510,24.663 28.538,23.440 28.087,22.111 L27.202,19.341 L27.380,19.341 C27.613,19.341 27.801,19.161 27.801,18.938 C27.801,18.745 27.661,18.585 27.474,18.544 C27.797,18.289 28.003,17.902 28.003,17.470 C28.003,16.964 27.720,16.522 27.299,16.278 L30.966,16.278 C30.545,16.522 30.262,16.964 30.262,17.470 C30.262,17.902 30.468,18.289 30.791,18.544 C30.604,18.585 30.464,18.745 30.464,18.938 C30.464,19.161 30.652,19.341 30.885,19.341 L31.063,19.341 L30.178,22.111 C29.727,23.440 29.755,24.663 30.720,25.122 Z" class="cls-2"/>
  </g>
</svg>
