<svg xmlns="http://www.w3.org/2000/svg" xmlns:xlink="http://www.w3.org/1999/xlink" preserveAspectRatio="xMidYMid" width="73" height="73" viewBox="0 0 73 73">
  <defs>
    <style>
      .cls-1 {
        fill: #fff;
        fill-rule: evenodd;
      }

      .cls-2 {
        stroke: #fff;
        stroke-width: 3px;
        fill: none;
      }
    </style>
  </defs>
  <g>
    <path d="M54.834,23.792 L35.571,14.671 C35.561,14.666 35.550,14.665 35.539,14.659 C35.481,14.633 35.418,14.615 35.358,14.595 C35.308,14.578 35.259,14.560 35.210,14.549 C35.160,14.537 35.108,14.534 35.056,14.527 C34.991,14.518 34.928,14.509 34.863,14.508 C34.851,14.508 34.842,14.505 34.829,14.505 C34.790,14.505 34.755,14.513 34.716,14.516 C34.650,14.521 34.587,14.524 34.525,14.535 C34.469,14.546 34.417,14.561 34.363,14.575 C34.310,14.590 34.256,14.605 34.204,14.625 C34.151,14.646 34.099,14.672 34.049,14.697 C34.000,14.722 33.952,14.747 33.905,14.776 C33.859,14.805 33.816,14.839 33.772,14.872 C33.727,14.908 33.682,14.941 33.640,14.981 C33.600,15.020 33.564,15.061 33.528,15.103 C33.491,15.145 33.454,15.186 33.422,15.231 C33.385,15.284 33.355,15.339 33.323,15.395 C33.304,15.429 33.280,15.459 33.263,15.494 C33.259,15.504 33.257,15.515 33.252,15.525 C33.225,15.584 33.207,15.645 33.187,15.707 C33.171,15.757 33.153,15.805 33.142,15.855 C33.130,15.905 33.127,15.957 33.120,16.008 C33.111,16.074 33.102,16.136 33.100,16.201 C33.100,16.212 33.097,16.223 33.097,16.234 L33.097,21.558 L29.370,23.519 C29.368,23.519 29.367,23.521 29.365,23.521 L16.096,30.508 C16.087,30.512 16.078,30.520 16.069,30.524 C16.059,30.529 16.049,30.533 16.040,30.539 C16.014,30.552 15.993,30.570 15.969,30.586 C15.936,30.606 15.904,30.626 15.874,30.649 C15.842,30.673 15.813,30.698 15.783,30.724 C15.755,30.748 15.726,30.771 15.700,30.796 C15.672,30.824 15.645,30.853 15.619,30.883 C15.594,30.911 15.570,30.936 15.548,30.965 C15.523,30.996 15.501,31.028 15.479,31.061 C15.459,31.091 15.438,31.120 15.419,31.151 C15.399,31.185 15.382,31.220 15.364,31.254 C15.348,31.287 15.331,31.320 15.316,31.352 C15.300,31.388 15.289,31.425 15.275,31.462 C15.263,31.497 15.250,31.530 15.240,31.565 C15.229,31.604 15.222,31.643 15.213,31.682 C15.206,31.719 15.197,31.753 15.191,31.790 C15.186,31.830 15.183,31.872 15.180,31.913 C15.178,31.943 15.173,31.972 15.173,32.003 C15.173,32.009 15.173,32.016 15.173,32.020 C15.173,32.027 15.172,32.033 15.172,32.039 L15.172,32.668 L15.172,39.509 L15.172,43.598 C15.172,44.554 15.948,45.331 16.904,45.331 C17.861,45.331 18.637,44.555 18.637,43.598 L18.637,42.619 L33.571,51.873 L33.571,54.763 C33.571,55.718 34.346,56.495 35.303,56.495 C36.259,56.495 37.035,55.719 37.035,54.763 L37.035,51.882 L52.362,42.519 L52.362,43.204 C52.362,44.160 53.138,44.937 54.095,44.937 C55.051,44.937 55.828,44.162 55.828,43.204 L55.828,39.429 L55.828,32.041 L55.828,25.357 C55.824,24.688 55.439,24.079 54.834,23.792 L54.834,23.792 ZM34.858,24.548 L39.661,26.901 L38.562,27.682 L33.826,25.091 L34.858,24.548 ZM33.570,47.800 L18.635,38.545 L18.635,35.051 L33.570,43.730 L33.570,47.800 ZM35.310,40.736 L20.479,32.115 L30.147,27.027 L45.062,35.186 L35.310,40.736 ZM41.941,29.530 L43.202,28.634 L50.388,32.155 L48.599,33.172 L41.941,29.530 ZM52.361,38.459 L37.033,47.823 L37.033,43.741 L49.483,36.656 C49.485,36.654 49.489,36.653 49.492,36.650 L52.361,35.018 L52.361,38.459 ZM52.361,29.264 L36.562,21.526 L36.562,18.974 L52.361,26.454 L52.361,29.264 Z" class="cls-1"/>
    <circle cx="36.5" cy="36.5" r="35" class="cls-2"/>
  </g>
</svg>
