<svg xmlns="http://www.w3.org/2000/svg" xmlns:xlink="http://www.w3.org/1999/xlink" preserveAspectRatio="xMidYMid" width="29.47" height="29.469" viewBox="0 0 29.47 29.469">
  <defs>
    <style>
      .cls-1 {
        fill: #ff1255;
        fill-rule: evenodd;
      }
    </style>
  </defs>
  <path d="M17.548,14.719 L28.862,26.033 C29.643,26.814 29.643,28.080 28.862,28.861 C28.081,29.642 26.815,29.642 26.034,28.861 L14.720,17.547 L3.406,28.861 C2.625,29.642 1.359,29.642 0.578,28.861 C-0.203,28.080 -0.203,26.814 0.578,26.033 L11.892,14.719 L0.578,3.405 C-0.203,2.624 -0.203,1.358 0.578,0.577 C1.359,-0.204 2.625,-0.204 3.406,0.577 L14.720,11.891 L26.034,0.577 C26.815,-0.204 28.081,-0.204 28.862,0.577 C29.643,1.358 29.643,2.624 28.862,3.405 L17.548,14.719 Z" class="cls-1"/>
</svg>
