<svg xmlns="http://www.w3.org/2000/svg" xmlns:xlink="http://www.w3.org/1999/xlink" preserveAspectRatio="xMidYMid" width="70" height="70" viewBox="0 0 70 70">
  <defs>
    <style>
      .cls-1 {
        fill: #f88600;
      }

      .cls-2 {
        fill: #fff;
        fill-rule: evenodd;
      }
    </style>
  </defs>
  <g>
    <circle cx="35" cy="35" r="35" class="cls-1"/>
    <path d="M49.453,51.096 L46.728,51.096 L46.728,53.009 C46.728,54.661 45.385,56.006 43.735,56.006 L20.547,56.006 C18.896,56.006 17.553,54.661 17.553,53.009 L17.553,21.900 C17.553,20.249 18.896,18.904 20.547,18.904 L23.272,18.904 L23.272,16.991 C23.272,15.339 24.615,13.994 26.266,13.994 L49.453,13.994 C51.104,13.994 52.447,15.339 52.447,16.991 L52.447,48.100 C52.447,49.751 51.104,51.096 49.453,51.096 ZM23.272,48.100 L23.272,21.301 L20.547,21.301 C20.217,21.301 19.948,21.570 19.948,21.900 L19.948,53.009 C19.948,53.339 20.217,53.609 20.547,53.609 L43.735,53.609 C44.064,53.609 44.333,53.339 44.333,53.009 L44.334,53.009 L44.334,51.096 L26.266,51.096 C24.615,51.096 23.272,49.751 23.272,48.100 ZM50.052,16.991 C50.052,16.660 49.783,16.391 49.453,16.391 L26.266,16.391 C25.936,16.391 25.667,16.660 25.667,16.991 L25.667,48.100 C25.667,48.430 25.936,48.699 26.266,48.699 L49.453,48.699 C49.783,48.699 50.052,48.430 50.052,48.100 L50.052,16.991 ZM46.641,40.948 L29.078,40.948 C28.417,40.948 27.880,40.412 27.880,39.749 C27.880,39.088 28.417,38.551 29.078,38.551 L46.641,38.551 C47.302,38.551 47.839,39.088 47.839,39.749 C47.839,40.412 47.302,40.948 46.641,40.948 ZM46.641,35.243 L29.078,35.243 C28.417,35.243 27.880,34.707 27.880,34.045 C27.880,33.384 28.417,32.846 29.078,32.846 L46.641,32.846 C47.302,32.846 47.839,33.384 47.839,34.045 C47.839,34.707 47.302,35.243 46.641,35.243 ZM46.641,29.539 L29.078,29.539 C28.417,29.539 27.880,29.003 27.880,28.341 C27.880,27.679 28.417,27.142 29.078,27.142 L46.641,27.142 C47.302,27.142 47.839,27.679 47.839,28.341 C47.839,29.003 47.302,29.539 46.641,29.539 ZM46.641,23.835 L29.078,23.835 C28.417,23.835 27.880,23.299 27.880,22.636 C27.880,21.975 28.417,21.438 29.078,21.438 L46.641,21.438 C47.302,21.438 47.839,21.975 47.839,22.636 C47.839,23.299 47.302,23.835 46.641,23.835 Z" class="cls-2"/>
  </g>
</svg>
