<svg xmlns="http://www.w3.org/2000/svg" xmlns:xlink="http://www.w3.org/1999/xlink" preserveAspectRatio="xMidYMid" width="42" height="42" viewBox="0 0 42 42">
  <defs>
    <style>
      .cls-1 {
        fill: #fff;
      }

      .cls-2 {
        fill: #613a18;
        fill-rule: evenodd;
      }
    </style>
  </defs>
  <g>
    <circle cx="21" cy="21" r="21" class="cls-1"/>
    <path d="M37.003,20.248 C37.003,18.531 36.538,16.713 33.090,16.237 C32.989,16.223 32.889,16.224 32.792,16.235 C32.882,15.051 32.862,14.264 32.858,14.149 C32.837,13.506 32.301,12.996 31.657,12.996 L8.191,12.996 C7.792,12.996 7.419,13.195 7.198,13.526 C7.045,13.755 6.978,14.026 7.002,14.293 C6.976,15.426 6.979,22.742 11.166,27.621 L8.190,27.621 C7.531,27.621 6.997,28.154 6.997,28.812 C6.997,29.471 7.531,30.004 8.190,30.004 L14.269,30.004 L25.595,30.004 L31.668,30.004 C32.328,30.004 32.862,29.471 32.862,28.812 C32.862,28.154 32.328,27.621 31.668,27.621 L28.680,27.621 C28.924,27.334 29.154,27.039 29.370,26.737 C33.257,26.335 37.003,22.463 37.003,20.248 ZM32.518,18.537 C32.596,18.566 32.678,18.587 32.764,18.599 C34.616,18.854 34.616,19.320 34.616,20.246 C34.595,20.905 33.008,22.812 31.022,23.792 C31.806,21.981 32.258,20.129 32.518,18.537 ZM14.647,27.621 C10.178,24.357 9.487,17.974 9.396,15.379 L30.449,15.379 C30.319,18.004 29.548,24.438 25.208,27.621 L14.647,27.621 Z" class="cls-2"/>
  </g>
</svg>
