<svg xmlns="http://www.w3.org/2000/svg" xmlns:xlink="http://www.w3.org/1999/xlink" preserveAspectRatio="xMidYMid" width="42" height="42" viewBox="0 0 42 42">
  <defs>
    <style>

      .cls-3 {
        fill: #ffffff;
      }

      .cls-4 {
        fill: #542a04;
      }
    </style>
  </defs>
  <g id="группа-1">
    <circle id="circle-1" class="cls-3" cx="21" cy="21" r="21"/>
    <path d="M33.000,17.909 C33.000,17.713 32.917,17.537 32.785,17.417 C32.785,17.417 27.739,12.190 27.739,12.190 C27.622,12.068 27.462,12.000 27.296,12.000 C27.296,12.000 15.702,12.000 15.702,12.000 C15.536,12.000 15.377,12.068 15.259,12.190 C15.259,12.190 10.185,17.446 10.185,17.446 C10.185,17.446 10.185,17.446 10.185,17.446 C10.165,17.467 10.147,17.489 10.130,17.513 C10.126,17.518 10.122,17.523 10.119,17.528 C10.103,17.551 10.087,17.575 10.074,17.601 C10.074,17.602 10.073,17.604 10.073,17.605 C10.060,17.629 10.050,17.655 10.040,17.681 C10.038,17.686 10.037,17.691 10.035,17.696 C10.026,17.723 10.018,17.751 10.012,17.780 C10.012,17.781 10.012,17.781 10.012,17.782 C10.007,17.808 10.004,17.836 10.002,17.863 C10.002,17.871 10.001,17.879 10.001,17.886 C10.001,17.894 10.000,17.901 10.000,17.909 C10.000,17.909 10.000,20.523 10.000,20.523 C10.000,20.884 10.281,21.176 10.628,21.176 C10.628,21.176 11.660,21.176 11.660,21.176 C11.660,21.176 11.660,29.347 11.660,29.347 C11.660,29.708 11.941,30.000 12.288,30.000 C12.635,30.000 12.916,29.708 12.916,29.347 C12.916,29.347 12.916,22.516 12.916,22.516 C12.916,22.516 30.082,22.516 30.082,22.516 C30.082,22.516 30.082,29.347 30.082,29.347 C30.082,29.708 30.363,30.000 30.710,30.000 C31.057,30.000 31.338,29.708 31.338,29.347 C31.338,29.347 31.338,21.176 31.338,21.176 C31.338,21.176 32.370,21.176 32.370,21.176 C32.717,21.176 32.998,20.884 32.998,20.523 C32.998,20.523 32.998,17.949 32.998,17.949 C32.999,17.935 33.000,17.922 33.000,17.909 ZM22.709,13.306 C22.709,13.306 23.848,15.176 23.848,15.176 C23.848,15.176 17.290,15.176 17.290,15.176 C17.290,15.176 18.695,13.306 18.695,13.306 C18.695,13.306 22.709,13.306 22.709,13.306 C22.709,13.306 22.709,13.306 22.709,13.306 ZM15.961,13.306 C15.961,13.306 17.714,13.306 17.714,13.306 C17.714,13.306 16.194,15.330 16.194,15.330 C16.103,15.451 16.086,15.616 16.151,15.754 C16.216,15.892 16.351,15.979 16.498,15.979 C16.498,15.979 24.550,15.979 24.550,15.979 C24.691,15.979 24.821,15.900 24.889,15.771 C24.957,15.643 24.952,15.486 24.877,15.363 C24.877,15.363 23.624,13.306 23.624,13.306 C23.624,13.306 24.873,13.306 24.873,13.306 C24.873,13.306 26.196,15.210 26.196,15.210 C26.272,15.319 26.390,15.377 26.510,15.377 C26.588,15.377 26.667,15.352 26.736,15.301 C26.909,15.171 26.948,14.919 26.823,14.739 C26.823,14.739 25.826,13.306 25.826,13.306 C25.826,13.306 27.037,13.306 27.037,13.306 C27.037,13.306 30.850,17.256 30.850,17.256 C30.850,17.256 12.148,17.256 12.148,17.256 C12.148,17.256 15.961,13.306 15.961,13.306 ZM30.082,21.712 C30.082,21.712 12.916,21.712 12.916,21.712 C12.916,21.712 12.916,21.176 12.916,21.176 C12.916,21.176 30.082,21.176 30.082,21.176 C30.082,21.176 30.082,21.712 30.082,21.712 ZM31.742,19.870 C31.742,19.870 11.256,19.870 11.256,19.870 C11.256,19.870 11.256,18.562 11.256,18.562 C11.256,18.562 31.742,18.562 31.742,18.562 C31.742,18.562 31.742,19.870 31.742,19.870 Z" id="path-1" class="cls-4" fill-rule="evenodd"/>
  </g>
</svg>
