<?xml version="1.0" encoding="UTF-8"?>
<!DOCTYPE svg PUBLIC "-//W3C//DTD SVG 1.1//EN" "http://www.w3.org/Graphics/SVG/1.1/DTD/svg11.dtd">
<!-- Creator: CorelDRAW X7 -->
<svg xmlns="http://www.w3.org/2000/svg" xml:space="preserve" width="39.36mm" height="39.36mm" version="1.1" style="shape-rendering:geometricPrecision; text-rendering:geometricPrecision; image-rendering:optimizeQuality; fill-rule:evenodd; clip-rule:evenodd"
viewBox="0 0 3936 3936"
 xmlns:xlink="http://www.w3.org/1999/xlink">
 <defs>
  <style type="text/css">
   <![CDATA[
    .fil0 {fill:#294594}
   ]]>
  </style>
 </defs>
 <g id="Слой_x0020_1">
  <metadata id="CorelCorpID_0Corel-Layer"/>
  <path class="fil0" d="M3360 576c-357,-356 -849,-576 -1392,-576 -543,0 -1035,220 -1392,576 -356,357 -576,849 -576,1392 0,543 220,1035 576,1392 357,356 849,576 1392,576 543,0 1035,-220 1392,-576 356,-357 576,-849 576,-1392 0,-543 -220,-1035 -576,-1392zm-1392 -469c514,0 979,208 1316,545 337,337 545,802 545,1316 0,514 -208,979 -545,1316 -337,337 -802,545 -1316,545 -514,0 -979,-208 -1316,-545 -337,-337 -545,-802 -545,-1316 0,-514 208,-979 545,-1316 337,-337 802,-545 1316,-545zm1316 545c-337,-337 -802,-545 -1316,-545 -514,0 -979,208 -1316,545 -337,337 -545,802 -545,1316 0,514 208,979 545,1316 337,337 802,545 1316,545 514,0 979,-208 1316,-545 337,-337 545,-802 545,-1316 0,-514 -208,-979 -545,-1316zm-821 117l0 401 -289 0c-189,0 -206,136 -206,216l0 185 466 0 -69 397 -397 0 0 1209 -384 0 0 -1209 -252 0 0 -397 252 0 0 -233c0,-597 403,-569 403,-569l476 0z"/>
 </g>
</svg>
