<svg xmlns="http://www.w3.org/2000/svg" xmlns:xlink="http://www.w3.org/1999/xlink" preserveAspectRatio="xMidYMid" width="42" height="42" viewBox="0 0 42 42">
  <defs>
    <style>

      .cls-3 {
        fill: #ffffff;
      }

      .cls-4 {
        fill: #542a04;
      }
    </style>
  </defs>
  <g id="группа-1svg">
    <circle id="circle-1" class="cls-3" cx="21" cy="21" r="21"/>
    <path d="M33.593,19.362 C33.340,19.514 33.024,19.528 32.758,19.398 C32.758,19.398 30.709,18.398 30.709,18.398 C30.291,18.195 29.816,18.156 29.370,18.290 C29.370,18.290 18.241,22.016 18.241,22.016 C18.241,22.016 18.241,28.195 18.241,28.195 C18.241,29.581 17.285,30.753 15.984,31.117 C15.984,31.117 15.984,33.162 15.984,33.162 C15.984,33.625 15.599,34.000 15.125,34.000 C14.651,34.000 14.267,33.625 14.267,33.162 C14.267,33.162 14.267,31.117 14.267,31.117 C12.965,30.753 12.010,29.581 12.010,28.195 C12.010,28.195 12.010,21.259 12.010,21.259 C10.194,20.049 9.000,18.014 9.000,15.712 C9.000,12.011 12.085,9.000 15.878,9.000 C16.424,9.000 17.008,9.072 17.519,9.186 C20.499,9.852 29.405,11.771 29.404,11.771 C29.800,11.850 30.217,11.797 30.578,11.621 C30.578,11.621 32.758,10.557 32.758,10.557 C33.024,10.427 33.340,10.441 33.593,10.594 C33.846,10.746 34.000,11.016 34.000,11.306 C34.000,11.306 34.000,18.649 34.000,18.649 C34.000,18.939 33.846,19.209 33.593,19.362 ZM13.726,28.195 C13.726,28.948 14.354,29.560 15.125,29.560 C15.897,29.560 16.524,28.948 16.524,28.195 C16.524,28.195 16.524,27.246 16.524,27.246 C16.524,27.246 15.878,27.246 15.878,27.246 C15.546,27.246 15.277,26.984 15.277,26.660 C15.277,26.336 15.546,26.073 15.878,26.073 C15.878,26.073 16.524,26.073 16.524,26.073 C16.524,26.073 16.524,25.110 16.524,25.110 C16.524,25.110 15.878,25.110 15.878,25.110 C15.546,25.110 15.277,24.848 15.277,24.524 C15.277,24.200 15.546,23.937 15.878,23.937 C15.878,23.937 16.524,23.937 16.524,23.937 C16.524,23.937 16.524,22.394 16.524,22.394 C16.311,22.413 16.096,22.424 15.878,22.424 C15.126,22.424 14.404,22.304 13.726,22.086 C13.726,22.086 13.726,28.195 13.726,28.195 ZM15.878,10.675 C13.032,10.675 10.717,12.935 10.717,15.712 C10.717,18.489 13.032,20.749 15.878,20.749 C18.723,20.749 21.039,18.489 21.039,15.712 C21.039,12.935 18.723,10.675 15.878,10.675 ZM31.345,13.119 C30.638,13.464 29.822,13.568 29.048,13.410 C29.045,13.409 29.041,13.408 29.037,13.408 C29.037,13.408 21.427,11.753 21.427,11.753 C22.261,12.864 22.755,14.233 22.755,15.712 C22.755,16.895 22.439,18.006 21.887,18.972 C21.887,18.972 28.834,16.698 28.834,16.698 C28.840,16.696 28.846,16.694 28.851,16.692 C29.726,16.427 30.658,16.501 31.476,16.900 C31.476,16.900 32.283,17.294 32.283,17.294 C32.283,17.294 32.283,12.662 32.283,12.662 C32.283,12.662 31.345,13.119 31.345,13.119 ZM15.878,19.487 C13.745,19.487 12.010,17.794 12.010,15.712 C12.010,13.631 13.745,11.937 15.878,11.937 C18.011,11.937 19.746,13.631 19.746,15.712 C19.746,17.794 18.011,19.487 15.878,19.487 ZM15.878,13.613 C14.900,13.613 14.073,14.253 13.812,15.126 C13.812,15.126 17.943,15.126 17.943,15.126 C17.682,14.253 16.855,13.613 15.878,13.613 ZM13.812,16.298 C14.073,17.172 14.900,17.812 15.878,17.812 C16.855,17.812 17.682,17.172 17.943,16.298 C17.943,16.298 13.812,16.298 13.812,16.298 Z" id="path-1" class="cls-4" fill-rule="evenodd"/>
  </g>
</svg>
