<svg xmlns="http://www.w3.org/2000/svg" width="42" height="42" viewBox="0 0 42 42">
  <path id="Forma_1" data-name="Forma 1" class="cls-1" d="M1453.41,56h-18.82A11.6,11.6,0,0,0,1423,67.59V86.409A11.6,11.6,0,0,0,1434.59,98h18.82A11.6,11.6,0,0,0,1465,86.409V67.59A11.6,11.6,0,0,0,1453.41,56Zm7.86,30.41a7.867,7.867,0,0,1-7.86,7.864h-18.82a7.867,7.867,0,0,1-7.86-7.864V67.59a7.867,7.867,0,0,1,7.86-7.864h18.82a7.867,7.867,0,0,1,7.86,7.864V86.409h0ZM1444,66.178A10.822,10.822,0,1,0,1454.82,77,10.831,10.831,0,0,0,1444,66.178Zm0,17.918a7.1,7.1,0,1,1,7.1-7.1A7.109,7.109,0,0,1,1444,84.1Zm11.28-21.077a2.749,2.749,0,0,0-2.74,2.733A2.736,2.736,0,1,0,1455.28,63.018Z" transform="translate(-1423 -56)"/>
</svg>
