<svg xmlns="http://www.w3.org/2000/svg" xmlns:xlink="http://www.w3.org/1999/xlink" preserveAspectRatio="xMidYMid" width="70" height="70" viewBox="0 0 70 70">
  <defs>
    <style>
      .cls-1 {
        fill: #ff008a;
      }

      .cls-2 {
        fill: #fff;
        fill-rule: evenodd;
      }
    </style>
  </defs>
  <g>
    <circle cx="35" cy="35" r="35" class="cls-1"/>
    <path d="M35.007,56.005 C23.413,56.005 14.011,46.602 14.011,35.008 C14.011,23.414 23.413,14.011 35.007,14.011 C46.603,14.011 56.005,23.414 56.005,35.008 C56.005,46.602 46.603,56.005 35.007,56.005 ZM45.545,30.326 C43.717,32.067 41.131,33.468 40.736,30.645 C40.289,27.432 39.788,26.665 37.147,30.322 C30.182,39.960 34.977,22.220 29.527,29.439 C27.228,32.319 24.264,34.784 24.040,29.978 C23.651,21.642 19.553,32.857 16.253,34.178 C15.786,44.793 24.359,53.784 35.007,53.784 C45.376,53.784 53.782,45.376 53.782,35.008 C53.782,30.595 50.300,25.801 45.545,30.326 ZM35.007,51.114 C29.972,51.114 25.692,47.877 24.135,43.369 L24.822,43.369 C26.860,46.151 30.917,47.998 35.007,47.998 C39.099,47.998 43.341,46.151 45.380,43.369 L45.881,43.369 C44.322,47.877 40.044,51.114 35.007,51.114 ZM42.183,39.660 C41.366,39.660 40.703,38.998 40.703,38.181 C40.703,37.365 41.366,36.702 42.183,36.702 C42.999,36.702 43.662,37.365 43.662,38.181 C43.662,38.998 42.999,39.660 42.183,39.660 ZM28.191,39.660 C27.374,39.660 26.712,38.998 26.712,38.181 C26.712,37.365 27.374,36.702 28.191,36.702 C29.009,36.702 29.672,37.365 29.672,38.181 C29.672,38.998 29.009,39.660 28.191,39.660 Z" class="cls-2"/>
  </g>
</svg>
