<svg xmlns="http://www.w3.org/2000/svg" xmlns:xlink="http://www.w3.org/1999/xlink" preserveAspectRatio="xMidYMid" width="70" height="70" viewBox="0 0 70 70">
  <defs>
    <style>
      .cls-1 {
        fill: #aed200;
      }

      .cls-2 {
        fill: #fff;
        fill-rule: evenodd;
      }
    </style>
  </defs>
  <g>
    <circle cx="35" cy="35" r="35" class="cls-1"/>
    <path d="M20.126,51.249 L20.126,19.751 C20.126,18.303 21.306,17.126 22.751,17.126 L48.999,17.126 C50.447,17.126 51.624,18.303 51.624,19.751 L51.624,35.182 L54.249,32.557 L54.249,19.751 C54.249,16.852 51.898,14.502 48.999,14.502 L22.751,14.502 C19.852,14.502 17.502,16.852 17.502,19.751 L17.502,51.249 C17.502,54.148 19.852,56.498 22.751,56.498 L37.188,56.498 L37.188,53.874 L22.751,53.874 C21.306,53.874 20.126,52.697 20.126,51.249 ZM46.374,22.376 L25.376,22.376 L25.376,25.001 L46.374,25.001 L46.374,22.376 ZM46.374,27.626 L25.376,27.626 L25.376,30.250 L46.374,30.250 L46.374,27.626 ZM46.374,32.875 L25.376,32.875 L25.376,35.500 L46.374,35.500 L46.374,32.875 ZM25.376,40.750 L35.875,40.750 L35.875,38.125 L25.376,38.125 L25.376,40.750 ZM58.729,38.125 L56.874,36.269 C56.361,35.756 55.689,35.500 55.018,35.500 C54.346,35.500 53.675,35.756 53.162,36.269 L41.894,47.537 C41.381,48.050 39.812,50.033 39.812,50.704 L38.500,56.498 L44.293,55.186 C44.293,55.186 46.949,53.617 47.461,53.105 L58.729,41.836 C59.755,40.811 59.755,39.149 58.729,38.125 ZM46.536,52.174 C46.387,52.315 45.873,52.662 45.245,53.062 L41.845,49.662 C42.194,49.184 42.582,48.703 42.822,48.465 L51.306,39.981 L55.018,43.693 L46.536,52.174 Z" class="cls-2"/>
  </g>
</svg>
