<?xml version="1.0" encoding="UTF-8"?>
<!DOCTYPE svg PUBLIC "-//W3C//DTD SVG 1.1//EN" "http://www.w3.org/Graphics/SVG/1.1/DTD/svg11.dtd">
<!-- Creator: CorelDRAW X7 -->
<svg xmlns="http://www.w3.org/2000/svg" xml:space="preserve" width="24.685mm" height="24.685mm" version="1.1" style="shape-rendering:geometricPrecision; text-rendering:geometricPrecision; image-rendering:optimizeQuality; fill-rule:evenodd; clip-rule:evenodd"
viewBox="0 0 2469 2469"
 xmlns:xlink="http://www.w3.org/1999/xlink">
 <defs>
  <style type="text/css">
   <![CDATA[
    .fil0 {fill:#94B428}
    .fil1 {fill:white}
   ]]>
  </style>
 </defs>
 <g id="Слой_x0020_1">
  <metadata id="CorelCorpID_0Corel-Layer"/>
  <circle class="fil0" cx="1234" cy="1234" r="1234"/>
  <path id="Forma_1" class="fil1" d="M1519 1255l59 -291 10 -48 -49 -2c-26,-1 -52,-1 -76,-1 -275,0 -381,51 -455,128 -84,92 -134,211 -139,335 0,125 108,215 257,215 2,0 6,1 9,1 74,0 147,-25 206,-69 50,44 115,69 182,69 5,0 11,0 17,-1 2,0 4,0 6,0 126,0 242,-65 307,-173 58,-92 88,-199 88,-308 0,-4 0,-8 0,-13 0,-172 -84,-334 -226,-433 -124,-85 -271,-132 -421,-133 -6,0 -13,0 -19,0 -217,0 -423,99 -559,268 -122,155 -188,346 -188,542 -1,7 -1,13 -1,20 0,170 80,332 215,436 125,91 276,140 431,140 5,0 10,0 14,0 210,-1 418,-54 603,-153l34 -19 -17 -35 -57 -122 -18 -39 -38 20c-150,89 -321,139 -495,144 -7,1 -15,1 -22,1 -105,0 -207,-37 -288,-105 -73,-70 -114,-166 -114,-267 0,-6 1,-11 1,-17 0,-400 253,-610 503,-610 6,0 12,0 18,0 105,0 205,38 284,106 72,70 112,165 112,265 0,4 0,9 0,13 0,60 -12,119 -35,173 -15,53 -61,91 -115,95 -3,1 -5,1 -8,1 -17,0 -32,-14 -32,-32 0,-2 0,-3 1,-5 2,-27 6,-54 12,-80 1,-6 2,-11 3,-16zm-233 -32c-52,215 -118,261 -164,261 -1,0 -2,0 -3,0 -220,-141 237,-701 182,-357l-15 96z" data-name="Forma 1"/>
 </g>
</svg>
