<?xml version="1.0" encoding="UTF-8"?>
<!DOCTYPE svg PUBLIC "-//W3C//DTD SVG 1.1//EN" "http://www.w3.org/Graphics/SVG/1.1/DTD/svg11.dtd">
<!-- Creator: CorelDRAW X7 -->
<svg xmlns="http://www.w3.org/2000/svg" xml:space="preserve" width="24.685mm" height="24.685mm" version="1.1" style="shape-rendering:geometricPrecision; text-rendering:geometricPrecision; image-rendering:optimizeQuality; fill-rule:evenodd; clip-rule:evenodd"
viewBox="0 0 2469 2469"
 xmlns:xlink="http://www.w3.org/1999/xlink">
 <defs>
  <style type="text/css">
   <![CDATA[
    .fil0 {fill:#94B428}
    .fil1 {fill:white}
   ]]>
  </style>
 </defs>
 <g id="Слой_x0020_1">
  <metadata id="CorelCorpID_0Corel-Layer"/>
  <g id="_1993880232384">
   <circle class="fil0" cx="1234" cy="1234" r="1234"/>
   <path id="Forma_1" class="fil1" d="M1234 531l0 0c0,0 0,0 -1,0 -280,0 -508,228 -508,508 0,0 0,0 0,0 2,95 28,187 75,269l332 573c21,35 59,56 99,56 1,0 2,0 3,0 1,0 1,0 2,0 41,0 79,-21 100,-56l332 -573c48,-81 74,-174 75,-268 0,0 0,0 0,0 0,-281 -227,-509 -508,-509 0,0 -1,0 -1,0l0 0zm0 266c126,0 228,101 228,227 0,126 -102,227 -228,227 -125,0 -227,-101 -227,-227 0,-126 102,-227 227,-227z" data-name="Forma 1"/>
  </g>
 </g>
</svg>
