<?xml version="1.0" encoding="UTF-8"?>
<!DOCTYPE svg PUBLIC "-//W3C//DTD SVG 1.1//EN" "http://www.w3.org/Graphics/SVG/1.1/DTD/svg11.dtd">
<!-- Creator: CorelDRAW X7 -->
<svg xmlns="http://www.w3.org/2000/svg" xml:space="preserve" width="39.36mm" height="39.36mm" version="1.1" style="shape-rendering:geometricPrecision; text-rendering:geometricPrecision; image-rendering:optimizeQuality; fill-rule:evenodd; clip-rule:evenodd"
viewBox="0 0 3936 3936"
 xmlns:xlink="http://www.w3.org/1999/xlink">
 <defs>
  <style type="text/css">
   <![CDATA[
    .fil0 {fill:#EF7F1A}
   ]]>
  </style>
 </defs>
 <g id="Слой_x0020_1">
  <metadata id="CorelCorpID_0Corel-Layer"/>
  <path class="fil0" d="M3829 1968c0,-514 -208,-979 -545,-1316 -337,-337 -802,-545 -1316,-545 -514,0 -979,208 -1316,545 -337,337 -545,802 -545,1316 0,514 208,979 545,1316 337,337 802,545 1316,545 514,0 979,-208 1316,-545 337,-337 545,-802 545,-1316zm-1431 -1034c113,112 182,268 182,439 0,171 -69,326 -182,439 -112,112 -267,181 -438,181 -172,0 -327,-69 -439,-181 -112,-113 -182,-268 -182,-439 0,-171 70,-327 182,-439 112,-112 267,-182 439,-182 171,0 326,70 438,182zm57 1118c68,-45 158,-26 203,41 44,68 25,158 -42,203 -188,123 -365,183 -526,203l436 406c59,55 63,148 7,207 -55,60 -147,63 -206,8l-379 -353 -379 353c-59,55 -152,52 -207,-8 -55,-59 -52,-152 8,-207l438 -409c-312,-44 -512,-213 -513,-214 -62,-51 -71,-143 -20,-206 51,-62 144,-71 206,-20 1,1 424,358 974,-4zm-145 -679c0,-97 -39,-185 -102,-248 -64,-63 -151,-103 -248,-103 -97,0 -185,40 -248,103 -63,63 -103,151 -103,248 0,97 40,184 103,248 63,63 151,102 248,102 97,0 184,-39 248,-102 63,-64 102,-151 102,-248zm-342 -1266c514,0 979,208 1316,545 337,337 545,802 545,1316 0,514 -208,979 -545,1316 -337,337 -802,545 -1316,545 -514,0 -979,-208 -1316,-545 -337,-337 -545,-802 -545,-1316 0,-514 208,-979 545,-1316 337,-337 802,-545 1316,-545zm1392 469c-357,-356 -849,-576 -1392,-576 -543,0 -1035,220 -1392,576 -356,357 -576,849 -576,1392 0,543 220,1035 576,1392 357,356 849,576 1392,576 543,0 1035,-220 1392,-576 356,-357 576,-849 576,-1392 0,-543 -220,-1035 -576,-1392z"/>
 </g>
</svg>
