<?xml version="1.0" encoding="UTF-8"?>
<!DOCTYPE svg PUBLIC "-//W3C//DTD SVG 1.1//EN" "http://www.w3.org/Graphics/SVG/1.1/DTD/svg11.dtd">
<!-- Creator: CorelDRAW X7 -->
<svg xmlns="http://www.w3.org/2000/svg" xml:space="preserve" width="24.685mm" height="24.685mm" version="1.1" style="shape-rendering:geometricPrecision; text-rendering:geometricPrecision; image-rendering:optimizeQuality; fill-rule:evenodd; clip-rule:evenodd"
viewBox="0 0 2469 2469"
 xmlns:xlink="http://www.w3.org/1999/xlink">
 <defs>
  <style type="text/css">
   <![CDATA[
    .fil0 {fill:#94B428}
    .fil1 {fill:white}
   ]]>
  </style>
 </defs>
 <g id="Слой_x0020_1">
  <metadata id="CorelCorpID_0Corel-Layer"/>
  <circle class="fil0" cx="1234" cy="1234" r="1234"/>
  <path id="Forma_1" class="fil1" d="M1907 1643l-217 -217c-21,-21 -49,-32 -79,-32 -30,0 -60,13 -81,35l-110 109 -21 -12c-197,-99 -356,-258 -455,-455 -4,-7 -8,-14 -12,-21l74 -73 36 -36c22,-22 34,-51 34,-82 0,-29 -11,-57 -31,-78l-218 -218c-21,-20 -49,-32 -79,-32 -30,0 -60,13 -81,35l-62 61 2 2c-21,27 -38,57 -50,89 -12,29 -19,60 -23,91 -29,238 80,456 376,751 408,408 737,378 751,376 32,-4 62,-11 91,-23 32,-12 62,-29 89,-50l1 1 62 -61c22,-21 35,-51 35,-81 0,-29 -11,-58 -32,-79l0 0z" data-name="Forma 1"/>
 </g>
</svg>
