<svg xmlns="http://www.w3.org/2000/svg" xmlns:xlink="http://www.w3.org/1999/xlink" preserveAspectRatio="xMidYMid" width="42" height="42" viewBox="0 0 42 42">
  <defs>
    <style>
      .cls-1 {
        fill: #fff;
      }

      .cls-2 {
        fill: #5f3815;
        fill-rule: evenodd;
      }
    </style>
  </defs>
  <g>
    <circle cx="21" cy="21" r="21" class="cls-1"/>
    <path d="M32.884,18.266 L30.917,18.266 L30.917,32.656 C30.917,33.123 30.538,33.502 30.071,33.502 L11.928,33.502 C11.461,33.502 11.083,33.123 11.083,32.656 L11.083,18.266 L9.116,18.266 C8.649,18.266 8.270,17.888 8.270,17.421 L8.270,13.958 C8.270,13.491 8.649,13.112 9.116,13.112 L11.083,13.112 L11.083,12.383 C11.083,10.792 12.378,9.498 13.969,9.498 L28.031,9.498 C29.622,9.498 30.917,10.792 30.917,12.383 L30.917,13.112 L32.884,13.112 C33.351,13.112 33.730,13.491 33.730,13.958 L33.730,17.421 C33.730,17.888 33.351,18.266 32.884,18.266 ZM11.083,14.803 L9.962,14.803 L9.962,16.576 L11.083,16.576 L11.083,14.803 ZM29.225,27.641 L26.196,27.641 L26.196,28.251 C26.196,28.578 25.931,28.842 25.604,28.842 C25.277,28.842 25.012,28.578 25.012,28.251 L25.012,27.049 C25.012,26.722 25.277,26.457 25.604,26.457 L29.225,26.457 L29.225,12.383 C29.225,11.724 28.690,11.189 28.031,11.189 L13.969,11.189 C13.310,11.189 12.774,11.724 12.774,12.383 L12.774,26.457 L16.396,26.457 C16.723,26.457 16.988,26.722 16.988,27.049 L16.988,28.251 C16.988,28.578 16.723,28.842 16.396,28.842 C16.069,28.842 15.804,28.578 15.804,28.251 L15.804,27.641 L12.774,27.641 L12.774,31.811 L29.225,31.811 L29.225,27.641 ZM32.038,14.803 L30.917,14.803 L30.917,16.576 L32.038,16.576 L32.038,14.803 ZM14.403,28.559 C14.730,28.559 14.995,28.824 14.995,29.151 L14.995,29.654 L19.393,29.654 L19.393,29.151 C19.393,28.824 19.658,28.559 19.985,28.559 C20.312,28.559 20.577,28.824 20.577,29.151 L20.577,30.246 C20.577,30.573 20.312,30.838 19.985,30.838 L14.403,30.838 C14.076,30.838 13.810,30.573 13.810,30.246 L13.810,29.151 C13.810,28.824 14.076,28.559 14.403,28.559 ZM22.015,28.559 C22.342,28.559 22.607,28.824 22.607,29.151 L22.607,29.654 L27.005,29.654 L27.005,29.151 C27.005,28.824 27.270,28.559 27.597,28.559 C27.924,28.559 28.189,28.824 28.189,29.151 L28.189,30.246 C28.189,30.573 27.924,30.838 27.597,30.838 L22.015,30.838 C21.688,30.838 21.423,30.573 21.423,30.246 L21.423,29.151 C21.423,28.824 21.688,28.559 22.015,28.559 ZM23.791,28.842 C23.464,28.842 23.199,28.578 23.199,28.251 L23.199,27.641 L18.801,27.641 L18.801,28.251 C18.801,28.578 18.536,28.842 18.209,28.842 C17.882,28.842 17.617,28.578 17.617,28.251 L17.617,27.049 C17.617,26.722 17.882,26.457 18.209,26.457 L23.791,26.457 C24.118,26.457 24.383,26.722 24.383,27.049 L24.383,28.251 C24.383,28.578 24.118,28.842 23.791,28.842 Z" class="cls-2"/>
  </g>
</svg>
