<svg xmlns="http://www.w3.org/2000/svg" xmlns:xlink="http://www.w3.org/1999/xlink" preserveAspectRatio="xMidYMid" width="42" height="42" viewBox="0 0 42 42">
  <defs>
    <style>
      .cls-1 {
        fill: #fff;
      }

      .cls-2 {
        fill: #542a04;
        fill-rule: evenodd;
      }
    </style>
  </defs>
  <g>
    <circle cx="21" cy="21" r="21" class="cls-1"/>
    <path d="M27.161,9.005 L15.784,9.005 C15.328,9.005 15.011,9.431 15.011,9.899 L15.011,32.101 C15.011,32.569 15.328,32.995 15.784,32.995 L27.161,32.995 C27.616,32.995 27.989,32.584 27.989,32.101 L27.989,18.005 C27.989,17.991 27.989,17.962 27.989,17.948 C27.989,17.934 27.989,17.905 27.989,17.891 L27.989,9.899 C27.989,9.431 27.616,9.005 27.161,9.005 ZM26.332,10.708 L26.332,17.096 L16.667,17.096 L16.667,10.708 L26.332,10.708 ZM16.667,31.292 L16.667,18.800 L26.332,18.800 L26.332,31.292 L16.667,31.292 ZM19.843,21.355 L19.843,24.762 C19.843,25.230 19.470,25.613 19.015,25.613 C18.559,25.613 18.186,25.230 18.186,24.762 L18.186,21.355 C18.186,20.886 18.559,20.503 19.015,20.503 C19.470,20.503 19.843,20.886 19.843,21.355 ZM18.186,14.683 L18.186,12.980 C18.186,12.511 18.559,12.128 19.015,12.128 C19.470,12.128 19.843,12.511 19.843,12.980 L19.843,14.683 C19.843,15.151 19.470,15.535 19.015,15.535 C18.559,15.535 18.186,15.151 18.186,14.683 Z" class="cls-2"/>
  </g>
</svg>
