<svg xmlns="http://www.w3.org/2000/svg" xmlns:xlink="http://www.w3.org/1999/xlink" preserveAspectRatio="xMidYMid" width="42" height="42" viewBox="0 0 42 42">
  <defs>
    <style>
      .cls-1 {
        fill: #fff;
      }

      .cls-2 {
        fill: #542a04;
        fill-rule: evenodd;
      }
    </style>
  </defs>
  <g>
    <circle cx="21" cy="21" r="21" class="cls-1"/>
    <path d="M32.797,9.511 L9.203,9.511 C8.673,9.511 8.240,9.944 8.240,10.473 L8.240,32.446 C8.240,32.976 8.673,33.409 9.203,33.409 L20.759,33.409 C20.888,33.457 21.016,33.489 21.160,33.489 C21.305,33.489 21.433,33.457 21.562,33.409 L32.797,33.409 C33.327,33.409 33.760,32.976 33.760,32.446 L33.760,10.473 C33.760,9.944 33.327,9.511 32.797,9.511 ZM10.166,11.436 L20.117,11.436 L20.117,31.484 L10.166,31.484 L10.166,11.436 ZM31.834,31.484 L22.204,31.484 L22.204,11.436 L31.834,11.436 L31.834,31.484 ZM24.531,20.866 C24.531,20.177 25.093,19.599 25.799,19.599 C26.489,19.599 27.067,20.161 27.067,20.866 C27.067,21.556 26.505,22.134 25.799,22.134 C25.093,22.134 24.531,21.556 24.531,20.866 ZM17.758,20.866 C17.758,21.556 17.196,22.134 16.490,22.134 C15.799,22.134 15.222,21.572 15.222,20.866 C15.222,20.177 15.783,19.599 16.490,19.599 C17.196,19.599 17.758,20.161 17.758,20.866 Z" class="cls-2"/>
  </g>
</svg>
