<svg xmlns="http://www.w3.org/2000/svg" xmlns:xlink="http://www.w3.org/1999/xlink" preserveAspectRatio="xMidYMid" width="42" height="42" viewBox="0 0 42 42">
  <defs>
    <style>

      .cls-3 {
        fill: #ffffff;
      }

      .cls-4 {
        fill: #542a04;
      }
    </style>
  </defs>
  <g id="split">
    <circle id="circle-1" class="cls-3" cx="21" cy="21" r="21"/>
    <path d="M31.921,25.396 C31.921,25.396 11.079,25.396 11.079,25.396 C9.381,25.396 8.000,24.053 8.000,22.402 C8.000,22.402 8.000,15.801 8.000,15.801 C8.000,14.808 8.831,14.000 9.852,14.000 C9.852,14.000 33.148,14.000 33.148,14.000 C34.169,14.000 35.000,14.808 35.000,15.801 C35.000,15.801 35.000,22.402 35.000,22.402 C35.000,24.053 33.619,25.396 31.921,25.396 ZM30.986,15.445 C30.986,15.445 12.014,15.445 12.014,15.445 C12.014,15.445 12.014,17.146 12.014,17.146 C12.014,17.815 12.574,18.360 13.262,18.360 C13.262,18.360 29.738,18.360 29.738,18.360 C30.426,18.360 30.986,17.815 30.986,17.146 C30.986,17.146 30.986,15.445 30.986,15.445 ZM33.514,22.402 C33.514,22.402 33.514,15.801 33.514,15.801 C33.514,15.605 33.350,15.445 33.148,15.445 C33.148,15.445 32.471,15.445 32.471,15.445 C32.471,15.445 32.471,17.146 32.471,17.146 C32.471,18.612 31.245,19.805 29.738,19.805 C29.738,19.805 13.261,19.805 13.261,19.805 C11.755,19.805 10.528,18.612 10.528,17.146 C10.528,17.146 10.528,15.445 10.528,15.445 C10.528,15.445 9.852,15.445 9.852,15.445 C9.650,15.445 9.486,15.605 9.486,15.801 C9.486,15.801 9.486,22.402 9.486,22.402 C9.486,23.256 10.201,23.951 11.079,23.951 C11.079,23.951 31.921,23.951 31.921,23.951 C32.799,23.951 33.514,23.256 33.514,22.402 C33.514,22.402 33.514,22.402 33.514,22.402 ZM31.729,23.124 C31.729,23.124 11.271,23.124 11.271,23.124 C10.861,23.124 10.528,22.800 10.528,22.401 C10.528,22.002 10.861,21.679 11.271,21.679 C11.271,21.679 31.729,21.679 31.729,21.679 C32.139,21.679 32.471,22.002 32.471,22.401 C32.471,22.800 32.139,23.124 31.729,23.124 ZM15.149,27.484 C15.229,26.682 16.154,26.347 16.339,26.288 C16.729,26.163 17.148,26.369 17.277,26.748 C17.398,27.107 17.215,27.492 16.865,27.638 C16.887,27.650 16.910,27.664 16.935,27.677 C17.760,28.128 17.967,28.695 17.994,29.091 C18.062,30.059 17.126,30.776 17.019,30.854 C16.885,30.952 16.727,31.000 16.572,31.000 C16.346,31.000 16.124,30.901 15.978,30.713 C15.731,30.394 15.796,29.941 16.123,29.701 C16.318,29.554 16.520,29.289 16.512,29.189 C16.511,29.171 16.452,29.071 16.207,28.937 C15.450,28.524 15.094,28.035 15.149,27.484 ZM20.078,27.484 C20.158,26.682 21.083,26.347 21.268,26.288 C21.658,26.163 22.077,26.369 22.206,26.748 C22.327,27.107 22.144,27.492 21.794,27.638 C21.816,27.650 21.839,27.664 21.864,27.677 C22.690,28.128 22.896,28.695 22.923,29.091 C22.991,30.059 22.055,30.776 21.948,30.854 C21.814,30.952 21.656,31.000 21.501,31.000 C21.275,31.000 21.053,30.901 20.907,30.713 C20.660,30.394 20.725,29.941 21.052,29.701 C21.247,29.554 21.449,29.289 21.441,29.189 C21.440,29.171 21.381,29.071 21.136,28.937 C20.379,28.524 20.023,28.035 20.078,27.484 ZM25.007,27.484 C25.088,26.682 26.012,26.347 26.197,26.288 C26.587,26.163 27.006,26.369 27.135,26.748 C27.256,27.107 27.073,27.492 26.723,27.638 C26.745,27.650 26.768,27.664 26.793,27.677 C27.619,28.128 27.825,28.695 27.852,29.091 C27.920,30.059 26.984,30.776 26.877,30.854 C26.743,30.952 26.586,31.000 26.430,31.000 C26.205,31.000 25.982,30.901 25.836,30.713 C25.589,30.394 25.654,29.941 25.981,29.701 C26.176,29.554 26.378,29.289 26.370,29.189 C26.369,29.171 26.310,29.071 26.065,28.937 C25.308,28.524 24.952,28.035 25.007,27.484 Z" id="path-1" class="cls-4" fill-rule="evenodd"/>
  </g>
</svg>
