<svg xmlns="http://www.w3.org/2000/svg" xmlns:xlink="http://www.w3.org/1999/xlink" preserveAspectRatio="xMidYMid" width="73" height="73" viewBox="0 0 73 73">
  <defs>
    <style>
      .cls-1 {
        stroke: #fff;
        stroke-width: 3px;
        fill: none;
      }

      .cls-2 {
        fill: #fff;
        fill-rule: evenodd;
      }
    </style>
  </defs>
  <g>
    <circle cx="36.5" cy="36.5" r="35" class="cls-1"/>
    <path d="M47.343,17.079 C46.942,16.913 46.484,17.006 46.178,17.311 L18.311,45.178 C18.005,45.484 17.914,45.943 18.079,46.343 C18.244,46.742 18.634,47.002 19.067,47.002 L46.934,47.002 C47.524,47.002 48.002,46.523 48.002,45.933 L48.002,18.066 C48.002,17.634 47.741,17.245 47.343,17.079 ZM45.865,44.865 L21.646,44.865 L25.395,41.117 L26.896,42.618 C27.104,42.826 27.378,42.931 27.651,42.931 C27.925,42.931 28.198,42.826 28.407,42.618 C28.825,42.200 28.825,41.524 28.407,41.107 L26.906,39.606 L27.780,38.731 L28.213,39.163 C28.421,39.372 28.695,39.476 28.968,39.476 C29.242,39.476 29.515,39.372 29.724,39.163 C30.142,38.746 30.142,38.070 29.724,37.652 L29.291,37.220 L30.166,36.345 L31.667,37.846 C31.876,38.055 32.150,38.159 32.423,38.159 C32.697,38.159 32.970,38.055 33.179,37.846 C33.597,37.429 33.597,36.752 33.179,36.335 L31.678,34.834 L32.553,33.958 L32.985,34.391 C33.194,34.599 33.467,34.704 33.741,34.704 C34.015,34.704 34.288,34.599 34.497,34.391 C34.914,33.973 34.914,33.297 34.497,32.880 L34.064,32.448 L34.939,31.573 L36.441,33.073 C36.649,33.282 36.923,33.386 37.197,33.386 C37.470,33.386 37.743,33.282 37.952,33.073 C38.369,32.656 38.369,31.980 37.952,31.563 L36.451,30.061 L37.326,29.186 L37.758,29.619 C37.967,29.828 38.241,29.932 38.514,29.932 C38.788,29.932 39.061,29.828 39.270,29.619 C39.688,29.201 39.688,28.525 39.270,28.108 L38.837,27.675 L39.712,26.801 L41.213,28.302 C41.422,28.511 41.695,28.615 41.969,28.615 C42.243,28.615 42.516,28.511 42.725,28.302 C43.142,27.885 43.142,27.208 42.725,26.791 L41.224,25.290 L45.867,20.646 L45.867,44.865 L45.865,44.865 Z" class="cls-2"/>
  </g>
</svg>
