<svg xmlns="http://www.w3.org/2000/svg" xmlns:xlink="http://www.w3.org/1999/xlink" preserveAspectRatio="xMidYMid" width="42" height="42" viewBox="0 0 42 42">
  <defs>
    <style>
      .cls-1 {
        fill: #fff;
      }

      .cls-2 {
        fill: #542a04;
        fill-rule: evenodd;
      }
    </style>
  </defs>
  <g>
    <circle cx="21" cy="21" r="21" class="cls-1"/>
    <path d="M31.658,13.315 L29.202,18.227 C30.379,22.867 30.853,27.926 30.853,30.935 C30.853,31.413 30.466,31.800 29.988,31.800 L12.689,31.800 C12.212,31.800 11.824,31.413 11.824,30.935 C11.824,26.948 12.657,19.364 14.857,13.921 L13.189,13.921 C10.219,19.257 10.663,25.613 10.668,25.678 C10.704,26.154 10.348,26.570 9.872,26.606 C9.850,26.608 9.827,26.609 9.805,26.609 C9.358,26.609 8.979,26.265 8.944,25.811 C8.921,25.516 8.423,18.512 11.946,12.612 C12.103,12.351 12.385,12.191 12.689,12.191 L15.572,12.191 C15.595,12.191 15.617,12.196 15.640,12.198 C16.609,10.309 17.789,8.830 19.214,8.099 C20.007,7.692 22.668,7.692 23.464,8.099 C24.959,8.866 26.184,10.455 27.178,12.479 L31.141,12.479 C31.341,12.479 31.526,12.583 31.632,12.753 C31.737,12.923 31.747,13.135 31.658,13.315 ZM22.674,9.638 C22.276,9.486 20.403,9.485 19.984,9.647 C19.087,10.107 18.230,11.076 17.445,12.479 L24.799,12.479 L25.230,12.479 C24.443,11.074 23.581,10.103 22.674,9.638 ZM25.815,13.633 L25.375,13.633 L24.799,13.633 L16.862,13.633 C16.199,15.076 15.600,16.850 15.092,18.921 C14.131,22.840 13.650,27.164 13.567,30.070 L29.111,30.070 C29.028,27.164 28.547,22.840 27.586,18.922 C27.078,16.851 26.479,15.077 25.815,13.633 ZM27.703,13.633 C28.089,14.554 28.436,15.540 28.743,16.564 L30.208,13.633 L27.703,13.633 ZM17.996,16.326 C17.903,16.528 17.702,16.647 17.493,16.647 C17.416,16.647 17.337,16.631 17.261,16.596 C16.983,16.468 16.863,16.139 16.992,15.861 C17.182,15.451 17.388,15.060 17.606,14.700 C17.764,14.439 18.104,14.354 18.366,14.513 C18.627,14.671 18.711,15.011 18.553,15.273 C18.356,15.598 18.170,15.953 17.996,16.326 ZM17.193,18.468 C15.794,23.097 15.864,28.763 15.865,28.819 C15.869,29.126 15.625,29.377 15.320,29.382 C15.317,29.382 15.314,29.382 15.311,29.382 C15.010,29.382 14.762,29.139 14.758,28.837 C14.754,28.598 14.685,22.940 16.133,18.148 C16.221,17.856 16.533,17.690 16.823,17.778 C17.116,17.867 17.282,18.176 17.193,18.468 Z" class="cls-2"/>
  </g>
</svg>
