<?xml version="1.0" encoding="UTF-8"?>
<!DOCTYPE svg PUBLIC "-//W3C//DTD SVG 1.1//EN" "http://www.w3.org/Graphics/SVG/1.1/DTD/svg11.dtd">
<!-- Creator: CorelDRAW X7 -->
<svg xmlns="http://www.w3.org/2000/svg" xml:space="preserve" width="39.36mm" height="39.36mm" version="1.1" style="shape-rendering:geometricPrecision; text-rendering:geometricPrecision; image-rendering:optimizeQuality; fill-rule:evenodd; clip-rule:evenodd"
viewBox="0 0 3936 3936"
 xmlns:xlink="http://www.w3.org/1999/xlink">
 <defs>
  <style type="text/css">
   <![CDATA[
    .fil5 {fill:#000A12}
    .fil0 {fill:#00A680}
    .fil4 {fill:#00AF87}
    .fil3 {fill:#EF6945}
    .fil1 {fill:#F8C40F}
    .fil2 {fill:white}
   ]]>
  </style>
 </defs>
 <g id="Слой_x0020_1">
  <metadata id="CorelCorpID_0Corel-Layer"/>
  <g id="_2063077030304">
   <circle class="fil0" cx="1968" cy="1968" r="1968"/>
   <g>
    <path class="fil1" d="M2487 1371c85,-30 170,-42 255,-48 -225,-103 -486,-152 -771,-152 -285,0 -546,49 -777,152 407,6 747,334 777,734 6,-97 30,-182 67,-273 91,-194 249,-346 449,-413z"/>
    <g>
     <path class="fil2" d="M2760 1851c-146,0 -261,115 -261,261 0,145 115,261 261,261 145,0 261,-116 261,-261 -6,-152 -116,-261 -261,-261l0 0zm0 388c-73,0 -134,-54 -134,-133 0,-73 55,-134 134,-134 73,0 133,55 133,134 0,72 -60,133 -133,133z"/>
    </g>
    <g>
     <path class="fil2" d="M2535 1523c-157,55 -285,176 -358,328 -66,152 -72,327 -18,485l0 0c55,158 176,285 328,358 158,67 327,73 485,18 328,-121 498,-485 376,-819 -109,-327 -479,-497 -813,-370l0 0zm225 977c-213,0 -388,-176 -388,-388 0,-213 175,-389 388,-389 212,0 388,176 388,389 0,212 -170,388 -388,388z"/>
    </g>
    <g>
     <path class="fil2" d="M1164 1851c-146,0 -261,115 -261,261 0,145 115,261 261,261 146,0 261,-116 261,-261 0,-146 -121,-261 -261,-261l0 0zm0 388c-73,0 -133,-54 -133,-133 0,-73 54,-134 133,-134 79,0 134,55 134,134 0,72 -61,133 -134,133z"/>
    </g>
    <g>
     <path class="fil2" d="M1170 1481c-352,0 -637,279 -637,631 0,352 285,637 637,637 352,0 637,-285 637,-637 0,-352 -285,-631 -637,-631l0 0zm-6 1019c-212,0 -388,-176 -388,-388 0,-213 176,-389 388,-389 212,0 388,176 388,389 0,212 -176,388 -388,388z"/>
    </g>
    <path class="fil3" d="M1164 1978c-73,0 -133,55 -133,134 0,73 54,133 133,133 79,0 134,-54 134,-133 0,-79 -61,-134 -134,-134z"/>
    <path class="fil4" d="M2760 1978c-73,0 -134,55 -134,134 0,73 55,133 134,133 73,0 133,-54 133,-133 0,-79 -60,-134 -133,-134z"/>
    <g>
     <path class="fil5" d="M3403 1645c36,-158 158,-322 158,-322l-528 0c-297,-194 -661,-297 -1056,-297 -412,0 -795,109 -1092,297l-510 6c0,0 122,158 158,316 -97,127 -158,291 -158,467 0,443 364,795 795,795 255,0 473,-122 625,-298l170 255 170 -261c73,103 176,176 291,231 194,91 407,103 613,24 406,-152 625,-613 473,-1019 -30,-73 -67,-140 -109,-194l0 0zm-910 1049c-152,-67 -273,-194 -328,-358l0 0c-54,-158 -48,-333 18,-485 67,-152 195,-273 358,-328 328,-121 692,49 820,376 121,328 -49,692 -377,820 -163,48 -333,42 -491,-25l0 0zm-1323 55c-352,0 -637,-285 -637,-637 0,-352 285,-631 637,-631 352,0 637,279 637,631 0,346 -285,637 -637,637l0 0zm1317 -1378c-200,73 -358,219 -449,413 -37,91 -61,176 -67,273 -30,-406 -364,-728 -777,-734 225,-97 492,-152 777,-152 285,0 540,49 771,152 -91,0 -170,18 -255,48z"/>
    </g>
    <g>
     <path class="fil5" d="M1164 1711c-212,0 -388,176 -388,389 0,212 176,388 388,388 212,0 388,-176 388,-388 0,-213 -176,-389 -388,-389l0 0zm0 656c-146,0 -261,-116 -261,-261 0,-146 115,-261 261,-261 146,0 261,115 261,261 0,139 -121,261 -261,261z"/>
    </g>
    <g>
     <path class="fil5" d="M2760 1711c-213,0 -388,176 -388,389 0,212 175,388 388,388 212,0 388,-176 388,-388 0,-213 -170,-389 -388,-389l0 0zm0 656c-146,0 -261,-116 -261,-261 0,-146 115,-261 261,-261 145,0 261,115 261,261 -6,139 -116,261 -261,261z"/>
    </g>
   </g>
  </g>
 </g>
</svg>
