<svg xmlns="http://www.w3.org/2000/svg" xmlns:xlink="http://www.w3.org/1999/xlink" preserveAspectRatio="xMidYMid" width="42" height="42" viewBox="0 0 42 42">
  <defs>
    <style>

      .cls-3 {
        fill: #ffffff;
      }

      .cls-4 {
        fill: #542a04;
      }
    </style>
  </defs>
  <g id="группа-1">
    <circle id="circle-1" class="cls-3" cx="21" cy="21" r="21"/>
    <path d="M32.683,11.000 C32.683,11.000 10.317,11.000 10.317,11.000 C9.040,11.000 8.000,12.032 8.000,13.301 C8.000,13.301 8.000,14.601 8.000,14.601 C8.000,15.689 8.765,16.601 9.789,16.839 C9.789,16.839 9.789,25.803 9.789,25.803 C9.789,27.548 11.087,28.999 12.775,29.254 C12.775,29.254 12.775,31.031 12.775,31.031 C12.775,31.566 13.211,32.000 13.750,32.000 C14.289,32.000 14.726,31.566 14.726,31.031 C14.726,31.031 14.726,29.293 14.726,29.293 C14.726,29.293 28.274,29.293 28.274,29.293 C28.274,29.293 28.274,31.031 28.274,31.031 C28.274,31.566 28.711,32.000 29.250,32.000 C29.788,32.000 30.225,31.566 30.225,31.031 C30.225,31.031 30.225,29.254 30.225,29.254 C31.913,28.999 33.211,27.548 33.211,25.803 C33.211,25.803 33.211,16.839 33.211,16.839 C34.235,16.601 35.000,15.689 35.000,14.601 C35.000,14.601 35.000,13.301 35.000,13.301 C35.000,12.032 33.960,11.000 32.683,11.000 ZM9.951,13.301 C9.951,13.100 10.115,12.937 10.317,12.937 C10.317,12.937 32.683,12.937 32.683,12.937 C32.885,12.937 33.049,13.100 33.049,13.301 C33.049,13.301 33.049,14.601 33.049,14.601 C33.049,14.802 32.885,14.965 32.683,14.965 C32.683,14.965 10.317,14.965 10.317,14.965 C10.115,14.965 9.951,14.802 9.951,14.601 C9.951,14.601 9.951,13.301 9.951,13.301 ZM11.740,25.803 C11.740,25.803 11.740,16.902 11.740,16.902 C11.740,16.902 15.338,16.902 15.338,16.902 C15.338,17.332 15.689,17.680 16.122,17.680 C16.122,17.680 17.764,17.680 17.764,17.680 C18.198,17.680 18.549,17.332 18.549,16.902 C18.549,16.902 22.323,16.902 22.323,16.902 C22.323,16.902 22.323,27.357 22.323,27.357 C22.323,27.357 13.305,27.357 13.305,27.357 C12.442,27.357 11.740,26.660 11.740,25.803 ZM29.694,27.357 C29.694,27.357 24.274,27.357 24.274,27.357 C24.274,27.357 24.274,23.849 24.274,23.849 C24.696,23.837 25.035,23.494 25.035,23.071 C25.035,23.071 25.035,21.441 25.035,21.441 C25.035,21.019 24.696,20.676 24.274,20.664 C24.274,20.664 24.274,16.902 24.274,16.902 C24.274,16.902 31.260,16.902 31.260,16.902 C31.260,16.902 31.260,25.803 31.260,25.803 C31.260,26.660 30.558,27.357 29.694,27.357 Z" id="path-1" class="cls-4" fill-rule="evenodd"/>
  </g>
</svg>
