<svg xmlns="http://www.w3.org/2000/svg" xmlns:xlink="http://www.w3.org/1999/xlink" preserveAspectRatio="xMidYMid" width="42" height="42" viewBox="0 0 42 42">
  <defs>
    <style>
      .cls-1 {
        fill: #fff;
      }

      .cls-2 {
        fill: #542a04;
        fill-rule: evenodd;
      }
    </style>
  </defs>
  <g>
    <circle cx="21" cy="21" r="21" class="cls-1"/>
    <path d="M32.502,13.250 C30.420,12.950 28.202,12.733 25.888,12.611 L29.754,8.745 L28.254,7.244 L22.988,12.510 C22.495,12.501 21.999,12.497 21.500,12.497 L21.500,12.497 L15.497,6.494 L13.996,7.994 L18.550,12.548 C15.714,12.648 13.008,12.889 10.497,13.250 C9.852,15.776 9.494,18.567 9.494,21.502 C9.494,24.436 9.852,27.227 10.497,29.753 C13.866,30.238 17.587,30.506 21.500,30.506 C25.413,30.506 29.134,30.238 32.502,29.753 C33.148,27.227 33.506,24.436 33.506,21.502 C33.506,18.567 33.148,15.776 32.502,13.250 ZM29.752,27.003 C27.225,27.326 24.434,27.505 21.500,27.505 C18.565,27.505 15.774,27.326 13.248,27.003 C12.764,25.319 12.495,23.458 12.495,21.502 C12.495,19.545 12.764,17.684 13.248,16.000 C15.774,15.677 18.565,15.498 21.500,15.498 C24.434,15.498 27.225,15.677 29.752,16.000 C30.236,17.684 30.505,19.545 30.505,21.502 C30.505,23.458 30.236,25.319 29.752,27.003 Z" class="cls-2"/>
  </g>
</svg>
