<?xml version="1.0" encoding="UTF-8"?>
<!DOCTYPE svg PUBLIC "-//W3C//DTD SVG 1.1//EN" "http://www.w3.org/Graphics/SVG/1.1/DTD/svg11.dtd">
<!-- Creator: CorelDRAW X7 -->
<svg xmlns="http://www.w3.org/2000/svg" xml:space="preserve" width="39.36mm" height="39.36mm" version="1.1" style="shape-rendering:geometricPrecision; text-rendering:geometricPrecision; image-rendering:optimizeQuality; fill-rule:evenodd; clip-rule:evenodd"
viewBox="0 0 3936 3936"
 xmlns:xlink="http://www.w3.org/1999/xlink">
 <defs>
  <style type="text/css">
   <![CDATA[
    .fil0 {fill:#006CB5}
   ]]>
  </style>
 </defs>
 <g id="Слой_x0020_1">
  <metadata id="CorelCorpID_0Corel-Layer"/>
  <path class="fil0" d="M3360 576c-357,-356 -849,-576 -1392,-576 -543,0 -1035,220 -1392,576 -356,357 -576,849 -576,1392 0,543 220,1035 576,1392 357,356 849,576 1392,576 543,0 1035,-220 1392,-576 356,-357 576,-849 576,-1392 0,-543 -220,-1035 -576,-1392zm-1392 -469c514,0 979,208 1316,545 337,337 545,802 545,1316 0,514 -208,979 -545,1316 -337,337 -802,545 -1316,545 -514,0 -979,-208 -1316,-545 -337,-337 -545,-802 -545,-1316 0,-514 208,-979 545,-1316 337,-337 802,-545 1316,-545zm1316 545c-337,-337 -802,-545 -1316,-545 -514,0 -979,208 -1316,545 -337,337 -545,802 -545,1316 0,514 208,979 545,1316 337,337 802,545 1316,545 514,0 979,-208 1316,-545 337,-337 545,-802 545,-1316 0,-514 -208,-979 -545,-1316zm-2608 715l316 0c118,0 116,19 152,81 129,225 309,555 447,534l0 -440c0,-173 -114,-95 -120,-157 -4,-32 54,-84 160,-84l365 0c94,0 104,51 103,104l-3 577c186,-16 322,-295 436,-510 63,-119 73,-105 166,-105l351 0c79,0 96,32 45,112 -112,179 -233,373 -351,553 -38,59 -62,68 7,150 133,157 273,293 405,452 29,35 19,88 -65,88l-448 1c-60,0 -83,-2 -155,-78 -113,-120 -217,-238 -376,-254l0 249c0,48 -19,82 -92,82l-294 0c-420,0 -893,-842 -1102,-1255 -41,-82 -4,-100 53,-100z"/>
 </g>
</svg>
