<?xml version="1.0" encoding="UTF-8"?>
<!DOCTYPE svg PUBLIC "-//W3C//DTD SVG 1.1//EN" "http://www.w3.org/Graphics/SVG/1.1/DTD/svg11.dtd">
<!-- Creator: CorelDRAW X7 -->
<svg xmlns="http://www.w3.org/2000/svg" xml:space="preserve" width="108.604mm" height="53.1867mm" version="1.1" style="shape-rendering:geometricPrecision; text-rendering:geometricPrecision; image-rendering:optimizeQuality; fill-rule:evenodd; clip-rule:evenodd"
viewBox="0 0 11116 5444"
 xmlns:xlink="http://www.w3.org/1999/xlink">
 <defs>
  <style type="text/css">
   <![CDATA[
    .str1 {stroke:white;stroke-width:102.356;stroke-linejoin:round}
    .str0 {stroke:white;stroke-width:307.068;stroke-linejoin:round}
    .str2 {stroke:#FEFEFE;stroke-width:511.78;stroke-linejoin:round}
    .fil3 {fill:#94B428}
    .fil1 {fill:#23ABDD}
    .fil2 {fill:#998603}
    .fil4 {fill:#2B2A29;fill-rule:nonzero}
    .fil5 {fill:#94B428;fill-rule:nonzero}
    .fil0 {fill:url(#id0)}
   ]]>
  </style>
  <linearGradient id="id0" gradientUnits="userSpaceOnUse" x1="-0" y1="3052.79" x2="10576.5" y2="3052.79">
   <stop offset="0" style="stop-opacity:1; stop-color:#23ABDD"/>
   <stop offset="1" style="stop-opacity:1; stop-color:#93B328"/>
  </linearGradient>
 </defs>
 <g id="Слой_x0020_1">
  <metadata id="CorelCorpID_0Corel-Layer"/>
  <g id="_2340562732640">
   <path class="fil0" d="M5288 662c2921,0 5288,1070 5288,2391 0,1320 -2367,2391 -5288,2391 -2920,0 -5288,-1071 -5288,-2391 0,-1321 2368,-2391 5288,-2391zm0 209c2665,0 4826,977 4826,2182 0,1205 -2161,2182 -4826,2182 -2665,0 -4825,-977 -4825,-2182 0,-1205 2160,-2182 4825,-2182l0 0z"/>
   <polygon class="fil1 str0" points="2238,1853 2850,2220 4431,282 5097,833 5425,654 6421,1668 6734,1455 9395,4010 6972,2244 7321,3197 6062,1782 6147,2390 5364,1370 5062,2648 4873,1842 4617,2266 4527,1315 4218,1824 4138,1282 2516,4066 2670,3142 2294,3410 2337,2545 1653,3077 1849,2667 804,3374 "/>
   <polygon class="fil1" points="2238,1853 2850,2220 4431,282 5097,833 5425,654 6421,1668 6734,1455 9395,4010 6972,2244 7321,3197 6062,1782 6147,2390 5364,1370 5062,2648 4873,1842 4617,2266 4527,1315 4218,1824 4138,1282 2516,4066 2670,3142 2294,3410 2337,2545 1653,3077 1849,2667 804,3374 "/>
   <path class="fil2 str1" d="M2100 4848c15,-64 42,-142 87,-175l0 175 -87 0zm-131 -233c13,0 56,-49 69,-61l46 -42c91,-95 66,-112 132,-130 0,102 -51,194 -87,262 -81,153 -75,187 -160,189 -6,-247 -76,-121 -102,-218 72,-35 28,0 102,0zm757 -1237l44 -553 58 -30c0,-78 -12,-77 0,-131l12 18c32,48 26,52 104,70 74,-49 -9,-13 117,-73 -4,49 -71,184 -99,236l-146 305c-17,35 -22,55 -41,90l-49 68zm482 -1529c45,-10 217,16 217,73 0,59 -290,654 -335,684 0,-75 -51,-266 -57,-350 -20,-251 -62,-170 -74,-319l249 -88zm-2550 3319l3393 0 0 -73c-45,-21 -131,-28 -196,-37l-404 -62c-72,-9 -136,-12 -207,-25l-200 -34c-37,-19 -12,-24 -74,-42l-166 -67c-23,-10 -69,-29 -81,-36 -93,-52 24,-54 -128,-90 0,-112 -33,-132 -16,-204 20,-84 46,-80 46,-188 -1,-135 -5,-114 43,-205 181,-347 -47,-276 66,-559l242 -486c28,-45 48,-109 72,-160 28,-60 58,-112 83,-166 26,-57 49,-110 72,-160 19,-40 30,-57 44,-87l265 -550c83,6 19,22 102,29 51,-219 -17,-19 90,-216l70 -236c-27,-18 -110,-119 -215,-55 -1,1 -30,24 -41,32 -22,16 -22,15 -44,29 -116,76 -95,108 -184,122l-389 47c-30,-62 -30,-112 0,-175 -68,-5 -26,16 -59,-29 21,-90 45,-53 45,-188 -1,-78 8,-145 -19,-201 -48,-98 -158,-152 -273,-178l0 -59c107,-24 141,12 172,-89 49,-158 10,-139 90,-158 0,-57 -5,-59 -15,-102 121,-28 191,-70 204,-233 -133,-64 -182,16 -309,-98 -178,-161 -371,-188 -524,23 -76,106 -61,210 -62,218 -5,39 -8,10 -22,61 97,47 87,-38 63,182 -5,49 10,7 -29,55 -48,59 -38,103 -67,137 -12,14 -103,61 -127,77 -22,-14 -29,-27 -53,-33l-44 7c-128,29 -138,-105 -384,-105l-37 79c-49,109 16,46 -60,203 -16,33 -20,53 -34,82 37,24 60,40 73,87 -135,65 -84,9 -171,135 -51,73 -78,52 -193,113 0,73 9,114 61,124 53,10 53,-46 86,64 48,162 -16,46 -16,292 9,-14 6,-4 14,-30 1,-4 1,-20 1,-28l43 0c4,143 39,340 82,472 29,88 98,317 217,307 696,-56 393,-174 527,128 63,140 11,117 68,194 165,220 83,332 81,413 -1,62 35,199 24,242l-256 297c-60,47 -79,87 -135,142 -198,198 -183,129 -331,207 33,141 136,353 204,480 -104,0 -198,1 -281,-10 -689,-92 -797,-182 -797,374z"/>
   <path class="fil2 str1" d="M2100 4848c15,-64 42,-142 87,-175l0 175 -87 0zm-131 -233c13,0 56,-49 69,-61l46 -42c91,-95 66,-112 132,-130 0,102 -51,194 -87,262 -81,153 -75,187 -160,189 -6,-247 -76,-121 -102,-218 72,-35 28,0 102,0zm757 -1237l44 -553 58 -30c0,-78 -12,-77 0,-131l12 18c32,48 26,52 104,70 74,-49 -9,-13 117,-73 -4,49 -71,184 -99,236l-146 305c-17,35 -22,55 -41,90l-49 68zm482 -1529c45,-10 217,16 217,73 0,59 -290,654 -335,684 0,-75 -51,-266 -57,-350 -20,-251 -62,-170 -74,-319l249 -88zm-2550 3319l3393 0 0 -73c-45,-21 -131,-28 -196,-37l-404 -62c-72,-9 -136,-12 -207,-25l-200 -34c-37,-19 -12,-24 -74,-42l-166 -67c-23,-10 -69,-29 -81,-36 -93,-52 24,-54 -128,-90 0,-112 -33,-132 -16,-204 20,-84 46,-80 46,-188 -1,-135 -5,-114 43,-205 181,-347 -47,-276 66,-559l242 -486c28,-45 48,-109 72,-160 28,-60 58,-112 83,-166 26,-57 49,-110 72,-160 19,-40 30,-57 44,-87l265 -550c83,6 19,22 102,29 51,-219 -17,-19 90,-216l70 -236c-27,-18 -110,-119 -215,-55 -1,1 -30,24 -41,32 -22,16 -22,15 -44,29 -116,76 -95,108 -184,122l-389 47c-30,-62 -30,-112 0,-175 -68,-5 -26,16 -59,-29 21,-90 45,-53 45,-188 -1,-78 8,-145 -19,-201 -48,-98 -158,-152 -273,-178l0 -59c107,-24 141,12 172,-89 49,-158 10,-139 90,-158 0,-57 -5,-59 -15,-102 121,-28 191,-70 204,-233 -133,-64 -182,16 -309,-98 -178,-161 -371,-188 -524,23 -76,106 -61,210 -62,218 -5,39 -8,10 -22,61 97,47 87,-38 63,182 -5,49 10,7 -29,55 -48,59 -38,103 -67,137 -12,14 -103,61 -127,77 -22,-14 -29,-27 -53,-33l-44 7c-128,29 -138,-105 -384,-105l-37 79c-49,109 16,46 -60,203 -16,33 -20,53 -34,82 37,24 60,40 73,87 -135,65 -84,9 -171,135 -51,73 -78,52 -193,113 0,73 9,114 61,124 53,10 53,-46 86,64 48,162 -16,46 -16,292 9,-14 6,-4 14,-30 1,-4 1,-20 1,-28l43 0c4,143 39,340 82,472 29,88 98,317 217,307 696,-56 393,-174 527,128 63,140 11,117 68,194 165,220 83,332 81,413 -1,62 35,199 24,242l-256 297c-60,47 -79,87 -135,142 -198,198 -183,129 -331,207 33,141 136,353 204,480 -104,0 -198,1 -281,-10 -689,-92 -797,-182 -797,374z"/>
   <path class="fil3 str1" d="M2100 4848c15,-64 42,-142 87,-175l0 175 -87 0zm-131 -233c13,0 56,-49 69,-61l46 -42c91,-95 66,-112 132,-130 0,102 -51,194 -87,262 -81,153 -75,187 -160,189 -6,-247 -76,-121 -102,-218 72,-35 28,0 102,0zm757 -1237l44 -553 58 -30c0,-78 -12,-77 0,-131l12 18c32,48 26,52 104,70 74,-49 -9,-13 117,-73 -4,49 -71,184 -99,236l-146 305c-17,35 -22,55 -41,90l-49 68zm482 -1529c45,-10 217,16 217,73 0,59 -290,654 -335,684 0,-75 -51,-266 -57,-350 -20,-251 -62,-170 -74,-319l249 -88zm-2550 3319l3393 0 0 -73c-45,-21 -131,-28 -196,-37l-404 -62c-72,-9 -136,-12 -207,-25l-200 -34c-37,-19 -12,-24 -74,-42l-166 -67c-23,-10 -69,-29 -81,-36 -93,-52 24,-54 -128,-90 0,-112 -33,-132 -16,-204 20,-84 46,-80 46,-188 -1,-135 -5,-114 43,-205 181,-347 -47,-276 66,-559l242 -486c28,-45 48,-109 72,-160 28,-60 58,-112 83,-166 26,-57 49,-110 72,-160 19,-40 30,-57 44,-87l265 -550c83,6 19,22 102,29 51,-219 -17,-19 90,-216l70 -236c-27,-18 -110,-119 -215,-55 -1,1 -30,24 -41,32 -22,16 -22,15 -44,29 -116,76 -95,108 -184,122l-389 47c-30,-62 -30,-112 0,-175 -68,-5 -26,16 -59,-29 21,-90 45,-53 45,-188 -1,-78 8,-145 -19,-201 -48,-98 -158,-152 -273,-178l0 -59c107,-24 141,12 172,-89 49,-158 10,-139 90,-158 0,-57 -5,-59 -15,-102 121,-28 191,-70 204,-233 -133,-64 -182,16 -309,-98 -178,-161 -371,-188 -524,23 -76,106 -61,210 -62,218 -5,39 -8,10 -22,61 97,47 87,-38 63,182 -5,49 10,7 -29,55 -48,59 -38,103 -67,137 -12,14 -103,61 -127,77 -22,-14 -29,-27 -53,-33l-44 7c-128,29 -138,-105 -384,-105l-37 79c-49,109 16,46 -60,203 -16,33 -20,53 -34,82 37,24 60,40 73,87 -135,65 -84,9 -171,135 -51,73 -78,52 -193,113 0,73 9,114 61,124 53,10 53,-46 86,64 48,162 -16,46 -16,292 9,-14 6,-4 14,-30 1,-4 1,-20 1,-28l43 0c4,143 39,340 82,472 29,88 98,317 217,307 696,-56 393,-174 527,128 63,140 11,117 68,194 165,220 83,332 81,413 -1,62 35,199 24,242l-256 297c-60,47 -79,87 -135,142 -198,198 -183,129 -331,207 33,141 136,353 204,480 -104,0 -198,1 -281,-10 -689,-92 -797,-182 -797,374z"/>
   <path class="fil4 str2" d="M3731 3707c-9,138 -57,251 -143,343 -86,91 -204,135 -357,135 -119,0 -233,-27 -341,-84l-21 19c16,28 28,57 40,86 113,64 246,95 394,95 216,0 385,-57 507,-169 120,-113 180,-265 180,-454 0,-168 -62,-309 -184,-421 -122,-112 -294,-167 -515,-167 -146,0 -286,26 -422,78l-5 13c19,47 31,136 38,269l72 0c4,-86 7,-135 11,-145 1,-12 19,-27 51,-50 31,-22 69,-38 115,-50 45,-12 92,-17 140,-17 137,0 244,40 319,119 74,79 116,180 121,304 -66,4 -105,5 -119,5l-292 -5c-5,0 -38,2 -98,4l-7 63c-7,72 -14,115 -19,131l47 5 55 -95c56,-12 135,-17 239,-17 63,0 128,2 194,5zm387 576l0 -68c68,-6 106,-11 115,-14 7,-4 10,-7 14,-10 5,-9 10,-26 13,-52 5,-43 9,-126 11,-246l0 -316c0,-102 -2,-186 -6,-255 -1,-67 -6,-106 -12,-118 -3,-7 -8,-12 -17,-18 -12,-5 -51,-8 -118,-12l0 -68c101,3 190,5 270,5 96,0 185,-2 269,-5l0 68c-70,6 -111,11 -122,19 -12,7 -19,24 -20,54 -4,34 -5,175 -5,423l12 0c56,-45 137,-121 244,-227 106,-109 189,-198 246,-269l1 -30 -1 -30 8 -8c60,3 112,5 155,5 46,0 96,-2 153,-5l0 68 -48 6c-38,3 -62,8 -74,12 -22,10 -52,31 -90,63 -56,47 -127,110 -211,193l-150 141 78 94c91,112 199,239 326,380 73,85 116,129 131,138 10,5 36,10 79,14l0 68 -44 -1 -150 -4c-40,0 -91,2 -155,5 -46,-58 -122,-151 -230,-280 -81,-96 -158,-182 -231,-261 -10,-11 -15,-16 -20,-17 -4,-2 -5,-2 -9,-2 -8,0 -15,3 -17,10 -2,4 -3,26 -3,67l3 255c2,75 3,118 9,129 3,8 10,13 17,17 12,5 51,10 118,14l0 68c-82,-3 -175,-5 -276,-5 -50,0 -138,2 -263,5zm1984 18c-207,0 -365,-54 -475,-160 -110,-105 -165,-251 -165,-437 0,-131 28,-241 79,-332 53,-91 127,-160 222,-210 94,-48 217,-72 364,-72 143,0 260,24 351,71 90,46 160,111 208,194 50,82 74,186 74,306 0,131 -27,244 -81,339 -53,96 -129,170 -227,221 -98,54 -215,80 -350,80zm31 -92c113,0 202,-41 269,-125 69,-83 102,-208 102,-378 0,-177 -38,-315 -115,-409 -62,-78 -158,-116 -289,-116 -120,0 -215,40 -282,121 -67,79 -100,203 -100,369 0,119 19,220 55,303 36,84 83,144 139,180 57,37 131,55 221,55zm715 -249l-12 -15c22,-50 41,-107 55,-176 105,4 189,5 254,5 69,0 148,-1 236,-5l12 17c-21,50 -40,109 -59,174 -93,-3 -177,-5 -249,-5 -76,0 -155,2 -237,5zm842 323l0 -68c31,0 65,-4 98,-9 17,-3 28,-7 35,-14 6,-7 12,-19 15,-36 3,-24 7,-112 10,-265 2,-108 2,-218 2,-331 0,-222 0,-336 -2,-339 -1,-5 -20,-7 -60,-7 -77,0 -144,2 -201,7 -33,2 -50,5 -55,8 -3,2 -7,7 -10,14 -2,9 -7,57 -14,150l-72 0c1,-109 -2,-203 -9,-280l9 -7c177,8 349,12 515,12 167,0 353,-4 559,-12l9 13c-10,78 -17,169 -23,274l-70 0c-5,-95 -10,-148 -15,-155 -4,-7 -13,-10 -26,-14 -45,-7 -134,-10 -267,-10 -12,0 -19,2 -20,5 -2,4 -4,19 -4,45l-5 564c0,163 2,265 5,301 2,37 9,60 19,68 9,6 52,11 132,18l0 68c-82,-3 -168,-5 -261,-5 -120,0 -218,2 -294,5zm2146 -1109c-50,0 -84,7 -103,23 -19,15 -69,127 -153,333l-257 638c-67,176 -116,289 -151,344 -33,55 -70,95 -113,119 -42,24 -90,36 -143,36 -46,0 -88,-9 -127,-29 14,-55 24,-109 29,-162l22 -7c31,38 73,57 124,57 38,0 72,-16 102,-45 29,-31 58,-91 89,-180 -16,-45 -57,-143 -122,-293 -31,-74 -74,-173 -126,-297 -58,-143 -110,-265 -156,-363 -48,-100 -77,-153 -91,-158 -14,-7 -48,-10 -103,-16l0 -68c103,3 201,5 294,5 80,0 165,-2 256,-5l0 68c-62,4 -100,9 -114,14 -15,7 -22,16 -22,29 0,19 24,86 70,200l246 583 184 -471c69,-181 105,-284 105,-312 0,-13 -7,-24 -20,-29 -13,-7 -54,-10 -121,-14l0 -68c100,3 170,3 210,3 38,0 101,0 191,-3l0 68zm65 1109l0 -68c67,-6 105,-11 114,-16 6,-3 12,-10 15,-19 5,-14 9,-72 12,-173 2,-104 4,-202 4,-298 0,-179 -2,-308 -6,-383 -3,-78 -10,-121 -17,-129 -8,-11 -33,-16 -74,-19l-48 -4 0 -68 95 3c58,0 106,2 141,2 46,0 123,-2 230,-4 57,-1 98,-1 126,-1 99,0 173,8 221,27 48,19 85,48 109,88 25,38 37,86 37,143 0,104 -36,190 -110,261 -74,70 -166,105 -280,105 -15,0 -31,-2 -46,-4 -17,-1 -35,-5 -52,-8 -10,-21 -20,-40 -31,-59l19 -20c12,1 24,5 35,7 10,0 20,1 27,1 57,0 103,-19 139,-58 36,-40 54,-95 54,-165 0,-79 -19,-138 -55,-176 -38,-39 -92,-58 -164,-58 -29,0 -63,3 -103,12 -5,174 -9,320 -9,440 0,40 2,169 7,387 2,86 6,136 9,148 2,10 9,17 15,20 12,7 61,12 143,18l0 68c-98,-3 -182,-5 -249,-5 -31,0 -133,2 -308,5z"/>
   <path class="fil5" d="M3731 3707c-9,138 -57,251 -143,343 -86,91 -204,135 -357,135 -119,0 -233,-27 -341,-84l-21 19c16,28 28,57 40,86 113,64 246,95 394,95 216,0 385,-57 507,-169 120,-113 180,-265 180,-454 0,-168 -62,-309 -184,-421 -122,-112 -294,-167 -515,-167 -146,0 -286,26 -422,78l-5 13c19,47 31,136 38,269l72 0c4,-86 7,-135 11,-145 1,-12 19,-27 51,-50 31,-22 69,-38 115,-50 45,-12 92,-17 140,-17 137,0 244,40 319,119 74,79 116,180 121,304 -66,4 -105,5 -119,5l-292 -5c-5,0 -38,2 -98,4l-7 63c-7,72 -14,115 -19,131l47 5 55 -95c56,-12 135,-17 239,-17 63,0 128,2 194,5zm387 576l0 -68c68,-6 106,-11 115,-14 7,-4 10,-7 14,-10 5,-9 10,-26 13,-52 5,-43 9,-126 11,-246l0 -316c0,-102 -2,-186 -6,-255 -1,-67 -6,-106 -12,-118 -3,-7 -8,-12 -17,-18 -12,-5 -51,-8 -118,-12l0 -68c101,3 190,5 270,5 96,0 185,-2 269,-5l0 68c-70,6 -111,11 -122,19 -12,7 -19,24 -20,54 -4,34 -5,175 -5,423l12 0c56,-45 137,-121 244,-227 106,-109 189,-198 246,-269l1 -30 -1 -30 8 -8c60,3 112,5 155,5 46,0 96,-2 153,-5l0 68 -48 6c-38,3 -62,8 -74,12 -22,10 -52,31 -90,63 -56,47 -127,110 -211,193l-150 141 78 94c91,112 199,239 326,380 73,85 116,129 131,138 10,5 36,10 79,14l0 68 -44 -1 -150 -4c-40,0 -91,2 -155,5 -46,-58 -122,-151 -230,-280 -81,-96 -158,-182 -231,-261 -10,-11 -15,-16 -20,-17 -4,-2 -5,-2 -9,-2 -8,0 -15,3 -17,10 -2,4 -3,26 -3,67l3 255c2,75 3,118 9,129 3,8 10,13 17,17 12,5 51,10 118,14l0 68c-82,-3 -175,-5 -276,-5 -50,0 -138,2 -263,5zm1984 18c-207,0 -365,-54 -475,-160 -110,-105 -165,-251 -165,-437 0,-131 28,-241 79,-332 53,-91 127,-160 222,-210 94,-48 217,-72 364,-72 143,0 260,24 351,71 90,46 160,111 208,194 50,82 74,186 74,306 0,131 -27,244 -81,339 -53,96 -129,170 -227,221 -98,54 -215,80 -350,80zm31 -92c113,0 202,-41 269,-125 69,-83 102,-208 102,-378 0,-177 -38,-315 -115,-409 -62,-78 -158,-116 -289,-116 -120,0 -215,40 -282,121 -67,79 -100,203 -100,369 0,119 19,220 55,303 36,84 83,144 139,180 57,37 131,55 221,55zm715 -249l-12 -15c22,-50 41,-107 55,-176 105,4 189,5 254,5 69,0 148,-1 236,-5l12 17c-21,50 -40,109 -59,174 -93,-3 -177,-5 -249,-5 -76,0 -155,2 -237,5zm842 323l0 -68c31,0 65,-4 98,-9 17,-3 28,-7 35,-14 6,-7 12,-19 15,-36 3,-24 7,-112 10,-265 2,-108 2,-218 2,-331 0,-222 0,-336 -2,-339 -1,-5 -20,-7 -60,-7 -77,0 -144,2 -201,7 -33,2 -50,5 -55,8 -3,2 -7,7 -10,14 -2,9 -7,57 -14,150l-72 0c1,-109 -2,-203 -9,-280l9 -7c177,8 349,12 515,12 167,0 353,-4 559,-12l9 13c-10,78 -17,169 -23,274l-70 0c-5,-95 -10,-148 -15,-155 -4,-7 -13,-10 -26,-14 -45,-7 -134,-10 -267,-10 -12,0 -19,2 -20,5 -2,4 -4,19 -4,45l-5 564c0,163 2,265 5,301 2,37 9,60 19,68 9,6 52,11 132,18l0 68c-82,-3 -168,-5 -261,-5 -120,0 -218,2 -294,5zm2146 -1109c-50,0 -84,7 -103,23 -19,15 -69,127 -153,333l-257 638c-67,176 -116,289 -151,344 -33,55 -70,95 -113,119 -42,24 -90,36 -143,36 -46,0 -88,-9 -127,-29 14,-55 24,-109 29,-162l22 -7c31,38 73,57 124,57 38,0 72,-16 102,-45 29,-31 58,-91 89,-180 -16,-45 -57,-143 -122,-293 -31,-74 -74,-173 -126,-297 -58,-143 -110,-265 -156,-363 -48,-100 -77,-153 -91,-158 -14,-7 -48,-10 -103,-16l0 -68c103,3 201,5 294,5 80,0 165,-2 256,-5l0 68c-62,4 -100,9 -114,14 -15,7 -22,16 -22,29 0,19 24,86 70,200l246 583 184 -471c69,-181 105,-284 105,-312 0,-13 -7,-24 -20,-29 -13,-7 -54,-10 -121,-14l0 -68c100,3 170,3 210,3 38,0 101,0 191,-3l0 68zm65 1109l0 -68c67,-6 105,-11 114,-16 6,-3 12,-10 15,-19 5,-14 9,-72 12,-173 2,-104 4,-202 4,-298 0,-179 -2,-308 -6,-383 -3,-78 -10,-121 -17,-129 -8,-11 -33,-16 -74,-19l-48 -4 0 -68 95 3c58,0 106,2 141,2 46,0 123,-2 230,-4 57,-1 98,-1 126,-1 99,0 173,8 221,27 48,19 85,48 109,88 25,38 37,86 37,143 0,104 -36,190 -110,261 -74,70 -166,105 -280,105 -15,0 -31,-2 -46,-4 -17,-1 -35,-5 -52,-8 -10,-21 -20,-40 -31,-59l19 -20c12,1 24,5 35,7 10,0 20,1 27,1 57,0 103,-19 139,-58 36,-40 54,-95 54,-165 0,-79 -19,-138 -55,-176 -38,-39 -92,-58 -164,-58 -29,0 -63,3 -103,12 -5,174 -9,320 -9,440 0,40 2,169 7,387 2,86 6,136 9,148 2,10 9,17 15,20 12,7 61,12 143,18l0 68c-98,-3 -182,-5 -249,-5 -31,0 -133,2 -308,5z"/>
  </g>
 </g>
</svg>
